<?xml version="1.0" encoding="UTF-8"?>
<svg xmlns="http://www.w3.org/2000/svg" version="1.1" xmlns:xlink="http://www.w3.org/1999/xlink" viewBox="0 0 30 21">
  <!-- Generator: Adobe Illustrator 30.3.0, SVG Export Plug-In . SVG Version: 2.1.3 Build 182)  -->
  <defs>
    <style>
      .st0 {
        fill: #4fc5f7;
      }

      .st1 {
        fill: url(#linear-gradient75);
      }

      .st2 {
        fill: url(#linear-gradient2);
      }

      .st3 {
        fill: #5acaf0;
      }

      .st4 {
        fill: url(#linear-gradient36);
      }

      .st5 {
        opacity: .71;
      }

      .st5, .st6 {
        fill: #fdfeff;
      }

      .st7 {
        fill: url(#linear-gradient39);
      }

      .st8, .st9, .st10, .st11, .st12, .st13, .st14, .st15, .st16, .st17, .st18, .st19, .st20 {
        mix-blend-mode: multiply;
      }

      .st8, .st21, .st22, .st23, .st24 {
        fill: none;
      }

      .st8, .st22 {
        stroke: #e4e1b6;
      }

      .st8, .st22, .st23 {
        stroke-linecap: round;
      }

      .st8, .st22, .st23, .st24 {
        stroke-miterlimit: 10;
        stroke-width: .03px;
      }

      .st25 {
        fill: url(#linear-gradient34);
      }

      .st9 {
        fill: url(#linear-gradient63);
      }

      .st26 {
        fill: url(#linear-gradient58);
      }

      .st27 {
        fill: url(#New_Gradient_Swatch_copy_301);
      }

      .st28 {
        fill: #ede3a5;
      }

      .st29 {
        fill: url(#linear-gradient73);
      }

      .st10 {
        fill: url(#linear-gradient68);
      }

      .st30 {
        fill: #141414;
      }

      .st31 {
        fill: url(#linear-gradient33);
      }

      .st32 {
        fill: url(#linear-gradient10);
      }

      .st33 {
        fill: url(#linear-gradient71);
      }

      .st34, .st18 {
        fill: #b5232e;
      }

      .st35 {
        fill: #e16712;
      }

      .st36 {
        fill: url(#linear-gradient32);
      }

      .st37, .st38 {
        fill: #376fa8;
      }

      .st39 {
        fill: url(#linear-gradient21);
      }

      .st11 {
        fill: #1a6a69;
        opacity: .75;
      }

      .st40 {
        fill: url(#linear-gradient37);
      }

      .st41 {
        fill: url(#linear-gradient56);
      }

      .st42 {
        fill: #41709c;
      }

      .st43 {
        fill: url(#linear-gradient27);
      }

      .st44 {
        fill: url(#linear-gradient53);
      }

      .st45 {
        fill: url(#linear-gradient57);
      }

      .st46, .st47, .st48, .st49, .st50, .st51, .st52, .st38 {
        mix-blend-mode: screen;
      }

      .st46, .st53 {
        fill: #260a00;
      }

      .st54 {
        fill: url(#linear-gradient35);
      }

      .st55 {
        fill: url(#radial-gradient10);
      }

      .st56 {
        fill: #fff;
      }

      .st57 {
        fill: url(#linear-gradient26);
      }

      .st58 {
        fill: url(#linear-gradient1);
      }

      .st59, .st15 {
        fill: #b9f2f9;
      }

      .st60 {
        fill: #1e7ba4;
      }

      .st61 {
        fill: url(#linear-gradient9);
      }

      .st62 {
        fill: #3ac373;
      }

      .st63 {
        fill: #ebe1a3;
      }

      .st64 {
        fill: url(#linear-gradient18);
      }

      .st65 {
        fill: #555354;
      }

      .st66 {
        fill: url(#linear-gradient61);
      }

      .st67 {
        fill: url(#radial-gradient11);
      }

      .st68 {
        fill: url(#linear-gradient23);
      }

      .st69 {
        fill: url(#linear-gradient72);
      }

      .st70 {
        fill: url(#linear-gradient43);
      }

      .st71 {
        fill: url(#linear-gradient78);
      }

      .st72 {
        fill: url(#linear-gradient8);
      }

      .st73 {
        fill: #77512f;
      }

      .st74 {
        fill: url(#linear-gradient11);
      }

      .st12 {
        fill: url(#linear-gradient66);
      }

      .st75 {
        fill: #1295d9;
      }

      .st47 {
        fill: #f7ffff;
        opacity: .89;
      }

      .st76 {
        mix-blend-mode: color-burn;
      }

      .st77 {
        fill: #ac3974;
      }

      .st78 {
        fill: url(#radial-gradient);
      }

      .st79 {
        fill: url(#linear-gradient16);
      }

      .st13 {
        fill: url(#linear-gradient67);
      }

      .st80 {
        fill: url(#linear-gradient24);
      }

      .st48, .st81 {
        fill: #25201a;
      }

      .st82 {
        fill: url(#radial-gradient5);
      }

      .st83 {
        fill: #8d8d8b;
      }

      .st84 {
        fill: url(#linear-gradient30);
      }

      .st85 {
        fill: url(#radial-gradient1);
      }

      .st49 {
        fill: #cefbfe;
      }

      .st86 {
        fill: #f2f2f2;
      }

      .st87 {
        fill: #d1ffff;
        opacity: .82;
      }

      .st88 {
        fill: url(#linear-gradient46);
      }

      .st50, .st89 {
        fill: #0d2555;
      }

      .st90 {
        fill: url(#linear-gradient22);
      }

      .st14 {
        fill: url(#linear-gradient69);
      }

      .st91 {
        isolation: isolate;
      }

      .st92 {
        fill: url(#linear-gradient29);
      }

      .st93 {
        fill: url(#linear-gradient49);
      }

      .st94 {
        fill: url(#linear-gradient19);
      }

      .st95 {
        fill: url(#linear-gradient12);
      }

      .st96 {
        fill: #098dcd;
        mix-blend-mode: darken;
      }

      .st97 {
        fill: #3d1e19;
      }

      .st98 {
        fill: #8c905d;
      }

      .st99 {
        fill: url(#linear-gradient80);
      }

      .st100 {
        fill: #041253;
      }

      .st101 {
        fill: #dbdbdb;
      }

      .st102 {
        fill: #adf6fc;
      }

      .st103 {
        fill: #7d040b;
      }

      .st104 {
        fill: url(#linear-gradient42);
      }

      .st105 {
        fill: url(#linear-gradient28);
      }

      .st106 {
        fill: #0c5790;
      }

      .st107 {
        fill: url(#radial-gradient7);
      }

      .st108 {
        fill: url(#linear-gradient40);
      }

      .st109 {
        fill: #b3e6f7;
      }

      .st110 {
        fill: #c9ffff;
      }

      .st111 {
        fill: url(#radial-gradient14);
      }

      .st112 {
        fill: #c9ecf0;
      }

      .st6 {
        opacity: .63;
      }

      .st113 {
        fill: url(#linear-gradient62);
      }

      .st114 {
        fill: url(#linear-gradient7);
      }

      .st115 {
        fill: url(#radial-gradient13);
      }

      .st116 {
        fill: #100f0d;
      }

      .st117 {
        fill: url(#linear-gradient59);
      }

      .st118 {
        fill: url(#linear-gradient20);
      }

      .st119 {
        fill: url(#linear-gradient4);
      }

      .st120 {
        fill: url(#linear-gradient31);
      }

      .st16 {
        fill: url(#linear-gradient65);
      }

      .st121 {
        fill: #ffbab0;
        mix-blend-mode: hard-light;
        opacity: .59;
      }

      .st122 {
        fill: #5aaaa1;
      }

      .st123 {
        fill: url(#linear-gradient79);
      }

      .st124 {
        fill: url(#linear-gradient14);
      }

      .st125 {
        fill: url(#linear-gradient5);
      }

      .st126 {
        fill: url(#linear-gradient74);
      }

      .st127 {
        fill: #1b1b1b;
      }

      .st128 {
        fill: url(#radial-gradient8);
      }

      .st129 {
        fill: url(#linear-gradient3);
      }

      .st130 {
        fill: url(#radial-gradient12);
      }

      .st23 {
        stroke: #b1d2c9;
      }

      .st131 {
        fill: #c8cecc;
        opacity: .3;
      }

      .st132 {
        fill: url(#linear-gradient55);
      }

      .st133 {
        fill: url(#linear-gradient38);
      }

      .st134 {
        fill: #54b9ed;
      }

      .st135 {
        fill: url(#linear-gradient25);
      }

      .st136 {
        fill: #0c64a3;
      }

      .st137 {
        fill: #e4e1b6;
      }

      .st138 {
        fill: #e82ca4;
      }

      .st139 {
        fill: #f6000b;
      }

      .st140 {
        fill: url(#linear-gradient52);
      }

      .st141, .st52 {
        fill: #199f62;
      }

      .st24 {
        stroke: #fff;
      }

      .st142 {
        fill: url(#linear-gradient15);
      }

      .st143 {
        fill: #fc0204;
      }

      .st144 {
        fill: url(#radial-gradient6);
      }

      .st145 {
        fill: #fdc953;
      }

      .st146 {
        fill: url(#linear-gradient17);
      }

      .st147 {
        fill: url(#radial-gradient2);
      }

      .st148 {
        fill: url(#linear-gradient54);
      }

      .st149 {
        fill: url(#linear-gradient50);
      }

      .st150 {
        fill: #b6d7ce;
      }

      .st151 {
        fill: url(#radial-gradient15);
      }

      .st152 {
        fill: url(#linear-gradient51);
      }

      .st153 {
        fill: #47ace4;
      }

      .st154 {
        fill: url(#linear-gradient6);
      }

      .st155 {
        fill: #1880b5;
      }

      .st156 {
        fill: url(#linear-gradient77);
      }

      .st157 {
        fill: url(#radial-gradient4);
      }

      .st158 {
        fill: #65c6e0;
      }

      .st159 {
        fill: url(#linear-gradient70);
      }

      .st160 {
        fill: url(#radial-gradient3);
      }

      .st161 {
        fill: #77cee9;
      }

      .st162 {
        fill: #fb9586;
      }

      .st163 {
        fill: url(#linear-gradient76);
      }

      .st164 {
        fill: url(#linear-gradient48);
      }

      .st165 {
        fill: #f90001;
      }

      .st166 {
        fill: url(#linear-gradient13);
      }

      .st167 {
        fill: url(#linear-gradient45);
      }

      .st168 {
        fill: url(#New_Gradient_Swatch_copy_30);
      }

      .st169 {
        fill: url(#linear-gradient47);
      }

      .st170 {
        fill: url(#radial-gradient9);
      }

      .st171 {
        fill: url(#linear-gradient60);
      }

      .st172 {
        fill: url(#linear-gradient);
      }

      .st19 {
        fill: #1d78a7;
      }

      .st173 {
        fill: url(#linear-gradient44);
      }

      .st174 {
        fill: #f5a54c;
      }

      .st175 {
        fill: #504e53;
      }

      .st176 {
        fill: url(#linear-gradient41);
      }

      .st177 {
        fill: url(#radial-gradient16);
      }

      .st178 {
        fill: #5c5e5b;
      }

      .st20 {
        fill: url(#linear-gradient64);
      }

      .st179 {
        fill: #07d1b8;
      }
    </style>
    <linearGradient id="linear-gradient" x1="8.23" y1="17.53" x2="9.08" y2="19.51" gradientUnits="userSpaceOnUse">
      <stop offset=".08" stop-color="#6f0809"/>
      <stop offset=".99" stop-color="#de9244"/>
    </linearGradient>
    <linearGradient id="linear-gradient1" x1="4.18" y1="14.2" x2="4.47" y2="18.59" gradientUnits="userSpaceOnUse">
      <stop offset=".08" stop-color="#6f0809"/>
      <stop offset=".1" stop-color="#77110b"/>
      <stop offset=".25" stop-color="#a44519"/>
      <stop offset=".38" stop-color="#c56a24"/>
      <stop offset=".48" stop-color="#d9812a"/>
      <stop offset=".55" stop-color="#e18a2d"/>
      <stop offset=".87" stop-color="#ca5609"/>
    </linearGradient>
    <linearGradient id="linear-gradient2" x1="3.69" y1="9.42" x2="4.47" y2="9.42" gradientUnits="userSpaceOnUse">
      <stop offset="0" stop-color="#faa227"/>
      <stop offset="1" stop-color="#e76702"/>
    </linearGradient>
    <radialGradient id="radial-gradient" cx="21.9" cy="5.65" fx="21.9" fy="5.65" r=".48" gradientUnits="userSpaceOnUse">
      <stop offset="0" stop-color="#e8edfa"/>
      <stop offset=".19" stop-color="#e1e6f3"/>
      <stop offset=".45" stop-color="#d0d5e0"/>
      <stop offset=".76" stop-color="#b4b8c2"/>
      <stop offset="1" stop-color="#9a9ea6"/>
    </radialGradient>
    <radialGradient id="radial-gradient1" cx="21.94" cy="5.18" fx="21.94" fy="5.18" r=".22" gradientUnits="userSpaceOnUse">
      <stop offset=".01" stop-color="#cb0d14"/>
      <stop offset=".25" stop-color="#c20d13"/>
      <stop offset=".62" stop-color="#ab0d10"/>
      <stop offset="1" stop-color="#8d0d0e"/>
    </radialGradient>
    <linearGradient id="linear-gradient3" x1="23.26" y1="2.92" x2="23.34" y2="2.92" gradientUnits="userSpaceOnUse">
      <stop offset="0" stop-color="#9a9ea6"/>
      <stop offset=".1" stop-color="#9ea2aa"/>
      <stop offset=".22" stop-color="#aaafb8"/>
      <stop offset=".35" stop-color="#bfc4ce"/>
      <stop offset=".47" stop-color="#dde1ee"/>
      <stop offset=".52" stop-color="#e8edfa"/>
      <stop offset=".53" stop-color="#e3e8f5"/>
      <stop offset=".6" stop-color="#c8cdd8"/>
      <stop offset=".68" stop-color="#b4b8c2"/>
      <stop offset=".77" stop-color="#a5a9b2"/>
      <stop offset=".87" stop-color="#9ca0a8"/>
      <stop offset="1" stop-color="#9a9ea6"/>
    </linearGradient>
    <linearGradient id="linear-gradient4" x1="5.25" y1="7.53" x2="6.09" y2="10.25" gradientUnits="userSpaceOnUse">
      <stop offset="0" stop-color="#e76702"/>
      <stop offset="1" stop-color="#faa227"/>
    </linearGradient>
    <linearGradient id="linear-gradient5" x1="6.31" y1="10.33" x2="3.76" y2="8.1" xlink:href="#linear-gradient4"/>
    <linearGradient id="linear-gradient6" x1="4.68" y1="7.59" x2="4.75" y2="7.84" xlink:href="#linear-gradient4"/>
    <linearGradient id="linear-gradient7" x1="10.11" y1="2.52" x2="10.6" y2="2.31" gradientUnits="userSpaceOnUse">
      <stop offset="0" stop-color="#a3a693"/>
      <stop offset=".19" stop-color="#bec0b4"/>
      <stop offset=".38" stop-color="#d5d6cf"/>
      <stop offset=".58" stop-color="#e5e5e2"/>
      <stop offset=".78" stop-color="#eee"/>
      <stop offset=".98" stop-color="#f2f2f2"/>
    </linearGradient>
    <linearGradient id="linear-gradient8" x1="10.56" y1="9.04" x2="12.45" y2="9.04" gradientUnits="userSpaceOnUse">
      <stop offset=".22" stop-color="#b4b5b0"/>
      <stop offset="1" stop-color="#e2e4e1"/>
    </linearGradient>
    <linearGradient id="linear-gradient9" x1="10.57" y1="8.97" x2="12.25" y2="8.97" gradientUnits="userSpaceOnUse">
      <stop offset="0" stop-color="#e8edfa"/>
      <stop offset=".32" stop-color="#dfe3eb"/>
      <stop offset=".86" stop-color="#cccecb"/>
    </linearGradient>
    <linearGradient id="linear-gradient10" x1="15.13" y1="4.87" x2="15.66" y2="4.87" gradientUnits="userSpaceOnUse">
      <stop offset="0" stop-color="#5ea387"/>
      <stop offset=".18" stop-color="#54947b"/>
      <stop offset=".53" stop-color="#3b6f5b"/>
      <stop offset=".87" stop-color="#1e4437"/>
    </linearGradient>
    <linearGradient id="linear-gradient11" x1="-365.51" y1="-53.92" x2="-362.77" y2="-53.92" gradientTransform="translate(284.39 90.44) rotate(25.47) scale(.79 -.79)" gradientUnits="userSpaceOnUse">
      <stop offset="0" stop-color="#fde8b9"/>
      <stop offset="1" stop-color="#c36e1d"/>
    </linearGradient>
    <linearGradient id="linear-gradient12" x1="21.62" y1="4.84" x2="22.33" y2="4.84" gradientUnits="userSpaceOnUse">
      <stop offset=".01" stop-color="#d4fcfc"/>
      <stop offset=".26" stop-color="#cbf4f4"/>
      <stop offset=".65" stop-color="#b4dee1"/>
      <stop offset="1" stop-color="#9bc6cc"/>
    </linearGradient>
    <radialGradient id="radial-gradient2" cx="22" cy="4.56" fx="22" fy="4.56" r=".53" gradientTransform="translate(0 3.28) scale(1 .28)" xlink:href="#radial-gradient1"/>
    <linearGradient id="linear-gradient13" x1="23.35" y1="1.64" x2="23.09" y2="3.72" gradientUnits="userSpaceOnUse">
      <stop offset="0" stop-color="#0f2e4d"/>
      <stop offset="0" stop-color="#0f2f4f"/>
      <stop offset=".05" stop-color="#0f4874"/>
      <stop offset=".09" stop-color="#0f5c93"/>
      <stop offset=".14" stop-color="#0f6cab"/>
      <stop offset=".19" stop-color="#0f78bc"/>
      <stop offset=".25" stop-color="#0f7ec6"/>
      <stop offset=".31" stop-color="#0f81ca"/>
      <stop offset=".54" stop-color="#1283cb"/>
      <stop offset=".71" stop-color="#1b8ace"/>
      <stop offset=".86" stop-color="#2b97d3"/>
      <stop offset="1" stop-color="#42a9db"/>
      <stop offset="1" stop-color="#43aadc"/>
    </linearGradient>
    <radialGradient id="radial-gradient3" cx="23.3" cy="4.47" fx="23.3" fy="4.47" r=".31" gradientTransform="translate(0 1.01) rotate(.06) scale(1 .77)" gradientUnits="userSpaceOnUse">
      <stop offset="0" stop-color="#e8edfa"/>
      <stop offset=".31" stop-color="#d2d7e3"/>
      <stop offset=".97" stop-color="#9da1a9"/>
      <stop offset="1" stop-color="#9a9ea6"/>
    </radialGradient>
    <radialGradient id="New_Gradient_Swatch_copy_30" data-name="New Gradient Swatch copy 30" cx="23.33" cy="4.6" fx="23.33" fy="4.6" r=".41" gradientUnits="userSpaceOnUse">
      <stop offset="0" stop-color="#e8edfa"/>
      <stop offset="1" stop-color="#9a9ea6"/>
    </radialGradient>
    <linearGradient id="linear-gradient14" x1="11.56" y1="3.29" x2="12.54" y2="3.29" gradientUnits="userSpaceOnUse">
      <stop offset="0" stop-color="#3f50ac"/>
      <stop offset=".55" stop-color="#726fbc"/>
    </linearGradient>
    <linearGradient id="linear-gradient15" x1="9.34" y1="4.71" x2="11.68" y2="3.37" gradientUnits="userSpaceOnUse">
      <stop offset="0" stop-color="#f07ada"/>
      <stop offset=".44" stop-color="#ef7cda"/>
      <stop offset=".68" stop-color="#ee84dd"/>
      <stop offset=".88" stop-color="#eb92e1"/>
      <stop offset=".98" stop-color="#ea9de5"/>
    </linearGradient>
    <linearGradient id="linear-gradient16" x1="8.97" y1="3.12" x2="9.13" y2="3.39" gradientUnits="userSpaceOnUse">
      <stop offset="0" stop-color="#58588c"/>
      <stop offset=".26" stop-color="#7372b0"/>
      <stop offset=".54" stop-color="#8b89d0"/>
      <stop offset=".77" stop-color="#9996e3"/>
      <stop offset=".94" stop-color="#9f9ceb"/>
    </linearGradient>
    <linearGradient id="linear-gradient17" x1="10.04" y1="2.46" x2="10.21" y2="2.72" gradientUnits="userSpaceOnUse">
      <stop offset="0" stop-color="#e8f29c"/>
      <stop offset=".39" stop-color="#f0f6b0"/>
      <stop offset=".94" stop-color="#ffffd4"/>
    </linearGradient>
    <radialGradient id="radial-gradient4" cx="13.06" cy="2.27" fx="13.06" fy="2.27" r=".21" gradientUnits="userSpaceOnUse">
      <stop offset="0" stop-color="#f9fa54"/>
      <stop offset=".17" stop-color="#f9fa57"/>
      <stop offset=".32" stop-color="#f9fa62"/>
      <stop offset=".47" stop-color="#f9fa75"/>
      <stop offset=".62" stop-color="#f9fa8f"/>
      <stop offset=".76" stop-color="#f9fab1"/>
      <stop offset=".9" stop-color="#f9fada"/>
      <stop offset="1" stop-color="#fafafc"/>
    </radialGradient>
    <radialGradient id="radial-gradient5" cx="12.61" cy="1.83" fx="12.61" fy="1.83" r=".2" gradientUnits="userSpaceOnUse">
      <stop offset="0" stop-color="#f9fa54"/>
      <stop offset=".26" stop-color="#f9fa56"/>
      <stop offset=".42" stop-color="#f9fa5e"/>
      <stop offset=".55" stop-color="#f9fa6d"/>
      <stop offset=".66" stop-color="#f9fa81"/>
      <stop offset=".76" stop-color="#f9fa9b"/>
      <stop offset=".86" stop-color="#f9fabb"/>
      <stop offset=".95" stop-color="#f9fae0"/>
      <stop offset="1" stop-color="#fafafc"/>
    </radialGradient>
    <linearGradient id="linear-gradient18" x1="12.78" y1="1.78" x2="13.12" y2="1.78" gradientUnits="userSpaceOnUse">
      <stop offset="0" stop-color="#f9fa54"/>
      <stop offset=".14" stop-color="#f9fa58"/>
      <stop offset=".29" stop-color="#f9fa64"/>
      <stop offset=".43" stop-color="#f9fa78"/>
      <stop offset=".58" stop-color="#f9fa94"/>
      <stop offset=".72" stop-color="#f9fab9"/>
      <stop offset=".87" stop-color="#f9fae5"/>
      <stop offset=".93" stop-color="#fafafc"/>
    </linearGradient>
    <radialGradient id="radial-gradient6" cx="13.06" cy="1.98" fx="13.06" fy="1.98" r=".23" gradientUnits="userSpaceOnUse">
      <stop offset="0" stop-color="#f9fa54"/>
      <stop offset=".35" stop-color="#f9fa55"/>
      <stop offset=".48" stop-color="#f9fa5c"/>
      <stop offset=".57" stop-color="#f9fa68"/>
      <stop offset=".64" stop-color="#f9fa79"/>
      <stop offset=".7" stop-color="#f9fa8f"/>
      <stop offset=".76" stop-color="#f9faaa"/>
      <stop offset=".81" stop-color="#f9faca"/>
      <stop offset=".85" stop-color="#f9faef"/>
      <stop offset=".87" stop-color="#fafafc"/>
    </radialGradient>
    <radialGradient id="radial-gradient7" cx="12.87" cy="2.38" fx="12.87" fy="2.38" r=".18" xlink:href="#radial-gradient4"/>
    <radialGradient id="radial-gradient8" cx="12.6" cy="2.35" fx="12.6" fy="2.35" r=".2" gradientUnits="userSpaceOnUse">
      <stop offset="0" stop-color="#f9fa54"/>
      <stop offset=".17" stop-color="#f9fa57"/>
      <stop offset=".32" stop-color="#f9fa62"/>
      <stop offset=".47" stop-color="#f9fa75"/>
      <stop offset=".61" stop-color="#f9fa8f"/>
      <stop offset=".75" stop-color="#f9fab0"/>
      <stop offset=".89" stop-color="#f9fad8"/>
      <stop offset=".99" stop-color="#fafafc"/>
    </radialGradient>
    <radialGradient id="radial-gradient9" cx="12.46" cy="2.09" fx="12.46" fy="2.09" r=".2" gradientUnits="userSpaceOnUse">
      <stop offset="0" stop-color="#f9fa54"/>
      <stop offset=".36" stop-color="#f9fa55"/>
      <stop offset=".49" stop-color="#f9fa5c"/>
      <stop offset=".58" stop-color="#f9fa68"/>
      <stop offset=".65" stop-color="#f9fa79"/>
      <stop offset=".72" stop-color="#f9fa8f"/>
      <stop offset=".77" stop-color="#f9faaa"/>
      <stop offset=".82" stop-color="#f9faca"/>
      <stop offset=".87" stop-color="#f9faef"/>
      <stop offset=".88" stop-color="#fafafc"/>
    </radialGradient>
    <radialGradient id="radial-gradient10" cx="12.78" cy="2.09" fx="12.78" fy="2.09" r=".11" gradientUnits="userSpaceOnUse">
      <stop offset="0" stop-color="#e70708"/>
      <stop offset=".41" stop-color="#e40708"/>
      <stop offset=".6" stop-color="#dd0808"/>
      <stop offset=".74" stop-color="#d00909"/>
      <stop offset=".86" stop-color="#be0b0b"/>
      <stop offset=".97" stop-color="#a60e0d"/>
      <stop offset="1" stop-color="#9f0f0e"/>
    </radialGradient>
    <radialGradient id="radial-gradient11" cx="13.61" cy="2.25" fx="13.61" fy="2.25" r=".75" gradientUnits="userSpaceOnUse">
      <stop offset="0" stop-color="#ea0104"/>
      <stop offset=".42" stop-color="#f01410"/>
      <stop offset="1" stop-color="#fd3526"/>
    </radialGradient>
    <radialGradient id="radial-gradient12" cx="13.43" cy="2.77" fx="13.43" fy="2.77" r=".67" gradientUnits="userSpaceOnUse">
      <stop offset="0" stop-color="#aaf5ee"/>
      <stop offset=".22" stop-color="#adf5ee"/>
      <stop offset=".42" stop-color="#b8f5ef"/>
      <stop offset=".61" stop-color="#cbf5f1"/>
      <stop offset=".79" stop-color="#e4f5f4"/>
      <stop offset=".81" stop-color="#e7f5f5"/>
    </radialGradient>
    <linearGradient id="linear-gradient19" x1="17.93" y1="4.21" x2="18.54" y2="4.21" gradientUnits="userSpaceOnUse">
      <stop offset="0" stop-color="#9a9ea6"/>
      <stop offset=".11" stop-color="#b4b8c2"/>
      <stop offset=".24" stop-color="#d0d5e0"/>
      <stop offset=".36" stop-color="#e1e6f3"/>
      <stop offset=".44" stop-color="#e8edfa"/>
      <stop offset=".64" stop-color="#e5eaf7"/>
      <stop offset=".76" stop-color="#dde2ee"/>
      <stop offset=".87" stop-color="#cfd4df"/>
      <stop offset=".97" stop-color="#bcc0ca"/>
      <stop offset="1" stop-color="#b4b8c2"/>
    </linearGradient>
    <linearGradient id="linear-gradient20" x1="16.3" y1="5.47" x2="20.28" y2="5.47" gradientUnits="userSpaceOnUse">
      <stop offset="0" stop-color="#8b8c8a"/>
      <stop offset=".6" stop-color="#fff"/>
      <stop offset="1" stop-color="#5c5e5b"/>
    </linearGradient>
    <linearGradient id="linear-gradient21" x1="16.3" y1="5.05" x2="20.28" y2="5.05" gradientUnits="userSpaceOnUse">
      <stop offset="0" stop-color="#8b8c8a"/>
      <stop offset=".76" stop-color="#c1c2c1"/>
    </linearGradient>
    <linearGradient id="linear-gradient22" x1="16.79" y1="2.38" x2="19.85" y2="4.07" gradientUnits="userSpaceOnUse">
      <stop offset="0" stop-color="#9fa3ab"/>
      <stop offset=".38" stop-color="#e8edfa"/>
      <stop offset="1" stop-color="#9a9ea6"/>
    </linearGradient>
    <linearGradient id="linear-gradient23" x1="16.98" y1="3.23" x2="19.8" y2="3.23" gradientUnits="userSpaceOnUse">
      <stop offset="0" stop-color="#fcfdff"/>
      <stop offset=".98" stop-color="#acebf2"/>
    </linearGradient>
    <radialGradient id="radial-gradient13" cx="24.35" cy="3.86" fx="24.35" fy="3.86" r=".63" gradientUnits="userSpaceOnUse">
      <stop offset="0" stop-color="#e70708"/>
      <stop offset=".21" stop-color="#e10708"/>
      <stop offset=".48" stop-color="#d20909"/>
      <stop offset=".77" stop-color="#b80c0b"/>
      <stop offset="1" stop-color="#9f0f0e"/>
    </radialGradient>
    <linearGradient id="linear-gradient24" x1="26.04" y1="3.96" x2="25.9" y2="4.44" gradientUnits="userSpaceOnUse">
      <stop offset="0" stop-color="#1d0a0e"/>
      <stop offset=".41" stop-color="#2a0c10"/>
      <stop offset="1" stop-color="#461115"/>
    </linearGradient>
    <linearGradient id="linear-gradient25" x1="25.84" y1="2.96" x2="25.47" y2="2.45" xlink:href="#linear-gradient24"/>
    <linearGradient id="linear-gradient26" x1="24.72" y1="3.57" x2="25.41" y2="3.57" xlink:href="#linear-gradient24"/>
    <linearGradient id="linear-gradient27" x1="26.33" y1="2.71" x2="26.56" y2="3.91" gradientUnits="userSpaceOnUse">
      <stop offset="0" stop-color="#f9fa54"/>
      <stop offset=".19" stop-color="#f9fa98"/>
      <stop offset=".41" stop-color="#f9fadf"/>
      <stop offset=".51" stop-color="#fafafc"/>
      <stop offset=".93" stop-color="#96edf7"/>
    </linearGradient>
    <linearGradient id="linear-gradient28" x1="25.3" y1="5.81" x2="25.3" y2="5.96" gradientUnits="userSpaceOnUse">
      <stop offset=".2" stop-color="#472420"/>
      <stop offset=".29" stop-color="#5f3e39"/>
      <stop offset=".48" stop-color="#9f8179"/>
      <stop offset=".52" stop-color="#ac8e86"/>
      <stop offset=".88" stop-color="#472420"/>
    </linearGradient>
    <linearGradient id="linear-gradient29" x1="24.08" y1="5.78" x2="24.08" y2="6.01" gradientUnits="userSpaceOnUse">
      <stop offset="0" stop-color="#005480"/>
      <stop offset=".53" stop-color="#156e98"/>
      <stop offset="1" stop-color="#005480"/>
    </linearGradient>
    <radialGradient id="radial-gradient14" cx="26.31" cy="5.86" fx="26.31" fy="5.86" r=".76" gradientTransform="translate(0 .67) scale(1 .89)" gradientUnits="userSpaceOnUse">
      <stop offset=".82" stop-color="#472420"/>
      <stop offset=".86" stop-color="#795852"/>
      <stop offset=".91" stop-color="#ac8e86"/>
      <stop offset=".92" stop-color="#a0817a"/>
      <stop offset=".95" stop-color="#81615b"/>
      <stop offset=".99" stop-color="#502e29"/>
      <stop offset=".99" stop-color="#472420"/>
    </radialGradient>
    <linearGradient id="linear-gradient30" x1="25.61" y1="7.35" x2="25.61" y2="7.54" gradientUnits="userSpaceOnUse">
      <stop offset="0" stop-color="#9a9ea6"/>
      <stop offset=".1" stop-color="#9fa3ab"/>
      <stop offset=".22" stop-color="#adb1ba"/>
      <stop offset=".36" stop-color="#c5c9d4"/>
      <stop offset=".51" stop-color="#e6ebf8"/>
      <stop offset=".52" stop-color="#e8edfa"/>
      <stop offset=".59" stop-color="#d2d6e2"/>
      <stop offset=".68" stop-color="#b9bdc7"/>
      <stop offset=".79" stop-color="#a7acb5"/>
      <stop offset=".89" stop-color="#9da1a9"/>
      <stop offset="1" stop-color="#9a9ea6"/>
    </linearGradient>
    <linearGradient id="linear-gradient31" x1="24.56" y1="7.32" x2="24.56" y2="7.47" gradientUnits="userSpaceOnUse">
      <stop offset="0" stop-color="#ba1408"/>
      <stop offset="1" stop-color="#f20205"/>
    </linearGradient>
    <linearGradient id="linear-gradient32" x1="26.71" y1="7.47" x2="25.83" y2="7.53" gradientUnits="userSpaceOnUse">
      <stop offset="0" stop-color="#117da3"/>
      <stop offset=".47" stop-color="#56b9d6"/>
    </linearGradient>
    <linearGradient id="linear-gradient33" x1="23.68" y1="4.04" x2="23.68" y2="1.46" gradientUnits="userSpaceOnUse">
      <stop offset="0" stop-color="#9a9ea6"/>
      <stop offset=".52" stop-color="#e8edfa"/>
      <stop offset="1" stop-color="#9a9ea6"/>
    </linearGradient>
    <linearGradient id="linear-gradient34" x1="22.94" y1="3.56" x2="23.13" y2="3.56" gradientUnits="userSpaceOnUse">
      <stop offset=".47" stop-color="#897835"/>
      <stop offset=".6" stop-color="#7c6d2a"/>
      <stop offset=".84" stop-color="#685d19"/>
      <stop offset="1" stop-color="#615814"/>
    </linearGradient>
    <radialGradient id="New_Gradient_Swatch_copy_301" data-name="New Gradient Swatch copy 30" cx="19.87" cy="-18.9" fx="19.87" fy="-18.9" r=".59" gradientTransform="translate(-2.02 18.98) scale(1.02 .78)" xlink:href="#New_Gradient_Swatch_copy_30"/>
    <radialGradient id="radial-gradient15" cx="27.24" cy="3.28" fx="27.24" fy="3.28" r=".51" gradientTransform="translate(0 -.94) scale(1 1.29)" xlink:href="#radial-gradient13"/>
    <linearGradient id="linear-gradient35" x1="24.77" y1="5.78" x2="24.77" y2="6.03" gradientUnits="userSpaceOnUse">
      <stop offset="0" stop-color="#bceae8"/>
      <stop offset=".49" stop-color="#e8fff9"/>
      <stop offset=".8" stop-color="#c9f0ed"/>
      <stop offset="1" stop-color="#bceae8"/>
    </linearGradient>
    <radialGradient id="radial-gradient16" cx="24.01" cy="2.34" fx="24.01" fy="2.34" r=".77" gradientTransform="translate(15.81 24.97) rotate(-74.37) scale(1 .77)" gradientUnits="userSpaceOnUse">
      <stop offset=".44" stop-color="#897835"/>
      <stop offset=".57" stop-color="#7f702d"/>
      <stop offset=".78" stop-color="#665d19"/>
      <stop offset=".79" stop-color="#655c18"/>
      <stop offset=".81" stop-color="#615814"/>
    </radialGradient>
    <linearGradient id="linear-gradient36" x1="22.63" y1="3.16" x2="23.05" y2="3.16" gradientUnits="userSpaceOnUse">
      <stop offset="0" stop-color="#615814"/>
      <stop offset=".04" stop-color="#685e1a"/>
      <stop offset=".18" stop-color="#7a6c29"/>
      <stop offset=".32" stop-color="#857532"/>
      <stop offset=".47" stop-color="#897835"/>
      <stop offset=".6" stop-color="#7c6d2a"/>
      <stop offset=".84" stop-color="#685d19"/>
      <stop offset="1" stop-color="#615814"/>
    </linearGradient>
    <linearGradient id="linear-gradient37" x1="22.38" y1="2.51" x2="23.06" y2="2.51" xlink:href="#linear-gradient34"/>
    <linearGradient id="linear-gradient38" x1="23.26" y1="2.76" x2="23.29" y2="2.76" xlink:href="#linear-gradient13"/>
    <linearGradient id="linear-gradient39" x1="23.26" y1="2.76" x2="23.53" y2="2.76" xlink:href="#linear-gradient13"/>
    <linearGradient id="linear-gradient40" x1="22.91" y1="2.76" x2="23.29" y2="2.76" xlink:href="#linear-gradient13"/>
    <linearGradient id="linear-gradient41" x1="23.33" y1="2.82" x2="23.8" y2="2.82" xlink:href="#linear-gradient13"/>
    <linearGradient id="linear-gradient42" x1="22.57" y1="2.77" x2="23.18" y2="2.77" xlink:href="#linear-gradient13"/>
    <linearGradient id="linear-gradient43" x1="22.29" y1="2.73" x2="22.99" y2="2.73" xlink:href="#linear-gradient13"/>
    <linearGradient id="linear-gradient44" x1="23.41" y1="2.79" x2="24.1" y2="2.79" xlink:href="#linear-gradient13"/>
    <linearGradient id="linear-gradient45" x1="22.6" y1="1.93" x2="23.62" y2="1.93" xlink:href="#linear-gradient13"/>
    <linearGradient id="linear-gradient46" x1="22.35" y1="2.26" x2="23.98" y2="2.26" xlink:href="#linear-gradient13"/>
    <linearGradient id="linear-gradient47" x1="22.25" y1="2.58" x2="24.04" y2="2.58" xlink:href="#linear-gradient13"/>
    <linearGradient id="linear-gradient48" x1="22.15" y1="2.94" x2="24.23" y2="2.94" xlink:href="#linear-gradient13"/>
    <linearGradient id="linear-gradient49" x1="22.38" y1="3.34" x2="23.99" y2="3.34" xlink:href="#linear-gradient13"/>
    <linearGradient id="linear-gradient50" x1="22.68" y1="3.59" x2="23.76" y2="3.59" xlink:href="#linear-gradient13"/>
    <linearGradient id="linear-gradient51" x1="11.34" y1="9.35" x2="10.61" y2="9.08" gradientUnits="userSpaceOnUse">
      <stop offset=".08" stop-color="#51524d"/>
      <stop offset=".42" stop-color="#6a6b66"/>
      <stop offset=".76" stop-color="#7d7e79"/>
      <stop offset="1" stop-color="#848580"/>
    </linearGradient>
    <linearGradient id="linear-gradient52" x1="12.33" y1="8.85" x2="12.37" y2="8.97" xlink:href="#linear-gradient8"/>
    <linearGradient id="linear-gradient53" x1="11.26" y1="3.57" x2="11.36" y2="3.57" xlink:href="#linear-gradient15"/>
    <linearGradient id="linear-gradient54" x1="3.79" y1="8.06" x2="6.27" y2="10.35" xlink:href="#linear-gradient2"/>
    <linearGradient id="linear-gradient55" x1="21.14" y1="7.83" x2="23.12" y2="6.79" gradientUnits="userSpaceOnUse">
      <stop offset="0" stop-color="#afd4dc"/>
      <stop offset=".14" stop-color="#bcdbe2"/>
      <stop offset=".39" stop-color="#e0eef2"/>
      <stop offset=".56" stop-color="#fcfdff"/>
      <stop offset=".66" stop-color="#e7f2f5"/>
      <stop offset=".89" stop-color="#bedce3"/>
      <stop offset="1" stop-color="#afd4dc"/>
    </linearGradient>
    <linearGradient id="linear-gradient56" x1="19.28" y1="7.15" x2="19.29" y2="7.85" gradientUnits="userSpaceOnUse">
      <stop offset="0" stop-color="#afd4dc"/>
      <stop offset="1" stop-color="#fcfdff"/>
    </linearGradient>
    <linearGradient id="linear-gradient57" x1="19.33" y1="7.23" x2="21.61" y2="7.66" gradientUnits="userSpaceOnUse">
      <stop offset="0" stop-color="#afd4dc"/>
      <stop offset=".8" stop-color="#fcfdff"/>
      <stop offset=".92" stop-color="#ddecf0"/>
      <stop offset="1" stop-color="#cce3e9"/>
    </linearGradient>
    <linearGradient id="linear-gradient58" x1="19.38" y1="7.4" x2="22.46" y2="6.64" gradientUnits="userSpaceOnUse">
      <stop offset="0" stop-color="#e9668e"/>
      <stop offset=".87" stop-color="#c72a3b"/>
    </linearGradient>
    <linearGradient id="linear-gradient59" x1="5.05" y1="12.79" x2="9.78" y2="10.41" gradientUnits="userSpaceOnUse">
      <stop offset="0" stop-color="#49c3f6"/>
      <stop offset=".95" stop-color="#479ac6"/>
    </linearGradient>
    <linearGradient id="linear-gradient60" x1="4.88" y1="13.84" x2="8.7" y2="13.84" gradientUnits="userSpaceOnUse">
      <stop offset=".02" stop-color="#479ac6"/>
      <stop offset=".08" stop-color="#47a4d2"/>
      <stop offset=".22" stop-color="#48b5e6"/>
      <stop offset=".36" stop-color="#48bff2"/>
      <stop offset=".5" stop-color="#49c3f6"/>
      <stop offset=".95" stop-color="#479ac6"/>
    </linearGradient>
    <linearGradient id="linear-gradient61" x1="5.85" y1="13.3" x2="7.3" y2="12.57" gradientUnits="userSpaceOnUse">
      <stop offset="0" stop-color="#601b0b"/>
      <stop offset=".95" stop-color="#bd4508"/>
    </linearGradient>
    <linearGradient id="linear-gradient62" x1="6.08" y1="13.31" x2="6.48" y2="13.31" xlink:href="#linear-gradient61"/>
    <linearGradient id="linear-gradient63" x1="19.3" y1="7.55" x2="21.04" y2="7.55" xlink:href="#linear-gradient57"/>
    <linearGradient id="linear-gradient64" x1="19.3" y1="7.67" x2="21.04" y2="7.67" xlink:href="#linear-gradient57"/>
    <linearGradient id="linear-gradient65" x1="19.3" y1="7.47" x2="21.04" y2="7.47" xlink:href="#linear-gradient57"/>
    <linearGradient id="linear-gradient66" x1="371.94" y1="-69.94" x2="373.68" y2="-69.94" gradientTransform="translate(401.53 -26.88) rotate(163.06) scale(1 -1.11)" xlink:href="#linear-gradient57"/>
    <linearGradient id="linear-gradient67" x1="371.94" y1="-69.83" x2="373.68" y2="-69.83" gradientTransform="translate(401.53 -26.88) rotate(163.06) scale(1 -1.11)" xlink:href="#linear-gradient57"/>
    <linearGradient id="linear-gradient68" x1="371.94" y1="-70.02" x2="373.68" y2="-70.02" gradientTransform="translate(401.53 -26.88) rotate(163.06) scale(1 -1.11)" xlink:href="#linear-gradient57"/>
    <linearGradient id="linear-gradient69" y1="4.88" x2="15.65" y2="4.88" xlink:href="#linear-gradient10"/>
    <linearGradient id="linear-gradient70" x1="15.48" y1="4.74" x2="15.52" y2="4.74" xlink:href="#linear-gradient10"/>
    <linearGradient id="linear-gradient71" x1="15.49" y1="4.84" x2="15.59" y2="4.84" xlink:href="#linear-gradient10"/>
    <linearGradient id="linear-gradient72" x1="15.39" y1="4.8" x2="15.41" y2="4.8" xlink:href="#linear-gradient10"/>
    <linearGradient id="linear-gradient73" x1="15.37" y1="4.92" x2="15.52" y2="4.92" xlink:href="#linear-gradient10"/>
    <linearGradient id="linear-gradient74" x1="15.28" y1="4.89" x2="15.3" y2="4.89" xlink:href="#linear-gradient10"/>
    <linearGradient id="linear-gradient75" x1="15.26" y1="5.01" x2="15.43" y2="5.01" xlink:href="#linear-gradient10"/>
    <linearGradient id="linear-gradient76" x1="17.96" y1="6.77" x2="18.94" y2="6.77" xlink:href="#linear-gradient14"/>
    <linearGradient id="linear-gradient77" x1="15.74" y1="8.2" x2="18.08" y2="6.86" xlink:href="#linear-gradient32"/>
    <linearGradient id="linear-gradient78" x1="17.17" y1="7.32" x2="17.27" y2="7.49" xlink:href="#linear-gradient16"/>
    <linearGradient id="linear-gradient79" x1="16.77" y1="7.45" x2="16.8" y2="7.5" xlink:href="#linear-gradient16"/>
    <linearGradient id="linear-gradient80" x1="17.66" y1="7.06" x2="17.76" y2="7.06" xlink:href="#linear-gradient15"/>
  </defs>
  <g class="st91">
    <g id="Layer_1">
      <g>
        <path class="st131" d="M2.42,17.15c2.94-.71,5.96-1.43,8.96-1.08.24.03.48.06.69.18.21.11.39.31.42.55.03.31-.19.59-.42.8-.9.83-2.07,1.32-3.26,1.58-1.2.26-2.43.31-3.65.36-.57.02-1.15.04-1.68-.17-.49-.2-.9-.6-1.11-1.09-.11-.26-.16-.56-.08-.83.08-.27.32-.51.6-.53"/>
        <path class="st178" d="M19.44,6.02v-.03s.06,0,.1,0c.04,0,.08,0,.11,0,.22,0,.39-.01.55-.03.11-.01.19-.04.26-.08.2-.12.28-.38.17-.6-.05-.11-.14-.2-.25-.25-.09-.04-.21-.06-.31-.07h-.01s0-.03,0-.03h.01c.1.02.22.03.32.08.11.05.21.15.26.26.11.24.04.52-.18.64-.07.04-.16.07-.27.08-.16.02-.34.03-.55.04-.04,0-.08,0-.11,0-.03,0-.06,0-.1,0Z"/>
        <path class="st101" d="M19.42,6.19s0,0,.01.01c.01.04-.05.06-.08.06-.04.01-.08.02-.12.02-.08,0-.15,0-.23-.02-.08-.02-.18-.06-.21-.14-.02-.05,0-.1.01-.15l.53.07s.07.15.07.15Z"/>
        <path class="st172" d="M9.7,17.59s.64.41.14.79c0,0-.78.65-1.92-.52l-1.61.22s1.98.93,2.86.85c0,0,1.47.1,1.35-1.05,0-.08-.05-.16-.11-.22-.2-.17-.65-.51-.7-.06Z"/>
        <path class="st58" d="M3.4,16.97s0,0,0,0c-.01-.08-.02-.17-.02-.25,0-.11,0-.21.03-.32.02-.12.06-.25.11-.36.06-.13.14-.24.25-.34.01-.01.03-.03.04-.04,0,0,.6-.7.68-1.09,0,0,.25-.89.59-.86v1.48l-.33.22s-1.46,1.52-.55,2.1c0,0,.87.14,1.16-.2,0,0-.11.38-.11.38,0,0-.04.01-.05.02-.04.01-.08.02-.13.04-.06.02-.13.03-.19.04-.08.01-.16.02-.23.03-.09,0-.17,0-.26,0-.09,0-.18-.02-.27-.05-.09-.02-.17-.06-.25-.11-.08-.05-.16-.11-.22-.18-.07-.08-.13-.18-.17-.28-.03-.07-.06-.14-.07-.22Z"/>
        <path class="st2" d="M3.74,8.01s-.05.19-.05.19c0,.22.05.43.11.63.1.33.17.68.22,1.02.05.29.06.62.21.89.05.08.12.12.18.03.22-.31-.48-2.62-.69-2.76Z"/>
        <path class="st3" d="M11.35,16.31c-.03.2-.13.44-.39.72,0,0-.34.42-.85.62,0,0,0,0,0,0-.05.02-.1.04-.16.05,0,0,0,0,0,0,0,0-.01,0-.02,0-.07.02-.15.03-.23.04h0s-.05,0-.07,0c-.01,0-.02,0-.03,0-.09,0-.18-.01-.28-.03-.93-.21-.98-2.08-.98-2.08l-.4-1.48-.19-.71-.23-.84-.19-.71,2.01-.51.58-.15.17-.04h.04s.08-.03.08-.03c0,0,.01,0,.04.02.05.02.13.07.22.15.04.03.07.07.11.11.15.16.28.4.25.74,0,0,0,.74-.2,1.34-.06.18-.09.37-.08.56,0,.03,0,.05,0,.08.01.08.03.17.06.24.03.07.06.14.08.21,0,0,0,.01,0,.02.03.11.09.27.14.44.09.27.23.52.39.76.08.11.15.28.12.51Z"/>
        <path class="st19" d="M9.43,11.36c.3.24.49.59.53.97.04.31-.05.62-.14.92-.04.15-.1.29-.13.44-.04.16-.04.32-.04.47-.36-.31-.68-.64-1.08-.89-.15-.09-.31-.18-.46-.29-.14-.11-.27-.24-.35-.41-.13-.29-.07-.66.15-.89.36-.38.96-.38,1.48-.36.03.02.01.02.04.04Z"/>
        <polygon class="st78" points="21.83 5.32 21.89 6.07 22 5.23 21.8 5.23 21.83 5.32"/>
        <path class="st85" d="M21.77,5.07s-.11.14-.13.21c0,0,.29.08.58,0,0,0-.05-.14-.16-.22l-.28.03h-.01Z"/>
        <rect class="st129" x="23.26" y="1.49" width=".08" height="2.85"/>
        <path class="st119" d="M5.67,7.35s.62,2.07.72,2.5c0,.03.02.05.03.08.04.09.13.31-.07.33l-1.05-1.06.07-1.04.25-.6s0-.16.06-.21Z"/>
        <polygon class="st125" points="3.78 8.09 4.41 10.82 6.34 10.26 5.61 7.57 4.58 7.77 3.78 8.09"/>
        <path class="st19" d="M11.35,16.31c-.03.2-.13.44-.39.72,0,0-.34.42-.85.62,0,0,0,0,0,0-.05.02-.1.04-.16.05,0,0,0,0,0,0,0,0-.01,0-.02,0-.07.02-.15.03-.23.04,0,0,0,0,0,0-.02,0-.05.02-.07.03v-.02s-.09-1.69-.09-1.69l-.04-.69h0s0-.06,0-.09c.02-.29.05-.56.1-.82.02-.08.03-.16.05-.24,0-.03.01-.05.02-.08t0,0c.19-.79.47-1.35.62-1.6.09-.15.13-.32.1-.49-.1-.58-.84-.56-.84-.56.02-.04.06-.08.12-.11.11-.07.26-.13.43-.19h0s.02,0,.03-.01c0,0,0,0,0,0,.03.01.08.03.13.05.05.02.11.06.18.09.04.03.07.07.11.11.15.16.28.4.25.74,0,0,0,.74-.2,1.34-.06.18-.09.37-.08.56,0,.03,0,.05,0,.08.01.09.03.17.06.24.03.07.06.13.08.2,0,0,0,.02,0,.02.03.11.09.27.14.44.09.27.23.52.39.76.08.11.15.28.12.51Z"/>
        <path class="st154" d="M5.67,7.35s0,0,0,.01c0,0,0,0,0,0,0,0,0,0,0,0-.04.07-.04.2-.04.2l-1.83.52h0c-.1-.12,0-.2.05-.23.04-.02.09-.02.13-.03.14-.03.28-.09.42-.14.15-.05.29-.1.44-.15.28-.08.56-.15.85-.2Z"/>
        <path class="st127" d="M8.35,5.21s.27-.12.33-.23c0,0-.17.36-.2.45l-.13-.22Z"/>
        <path class="st42" d="M8.52,5.36c0,.09-.05.21-.22.34h-.03s-.05.03-.05.03l-.09.03-.06.02v-.27s.1-.27.34-.3c.03,0,.07.01.08.05,0,0,0,0,0,0,0,0,0,.02.01.03,0,.02.01.05.01.08Z"/>
        <path class="st38" d="M8.52,5.36c0,.09-.05.21-.22.34h-.03s-.05.03-.05.03c-.07-.06-.13-.11-.13-.11l.1-.04s.21-.08.32-.3c0,.02.01.05.01.08Z"/>
        <path class="st37" d="M8.3,5.7s-.97,1.43-1.17,1.63h0s-.02.02-.03.02l-.07-.02-.1-.03v-.17s.98-1.45,1.15-1.62c0,0,.09.05.15.11,0,0,0,0,0,0,.02.02.04.04.05.05,0,0,0,0,0,0,0,0,0,.01,0,.02Z"/>
        <g class="st51">
          <path class="st37" d="M8.3,5.68l-1.17,1.64h0s-.02.02-.03.02l-.07-.02s0,0,0,0l1.22-1.7s.04.04.05.05c0,0,0,0,0,0Z"/>
        </g>
        <path class="st100" d="M6.87,7.11s.02-.01.03-.01c.07,0,.3.05.32.18,0,0,0,.01,0,.02,0,.17-.5.7-.5.7,0,0-.14.11-.28-.03,0,0-.14-.14-.03-.25,0,0,.41-.51.47-.6Z"/>
        <path class="st28" d="M8.54,7.74l-.26.22.03-.32s.08-.07.16-.14c.05-.04.09-.09.1-.11,0,0,0,.08,0,.16,0,.08,0,.17-.02.2Z"/>
        <path class="st34" d="M8.55,7.74s-.61,1.1-.97,1.71c-.1.17-.17.3-.21.36-.01.02-.04.03-.07.02l-.08-.04-.09-.05s-.03-.04-.02-.07l.14-.23,1.04-1.78.03.06s.04.05.06.06c0,0,.01,0,.02,0,.02,0,.04,0,.06,0l.07-.02Z"/>
        <polygon class="st24" points="6.68 3.54 5.25 5.64 7.94 4.66 6.68 3.54"/>
        <polygon class="st114" points="10.2 2.34 10.48 2.11 10.71 2.51 10.34 2.62 10.15 2.53 10.2 2.34"/>
        <path class="st122" d="M9.06,8.69l-.24.2s-.04.09-.01.12l.15.18s.07.04.11.01l.25-.2.08-.22-.34-.08Z"/>
        <polygon class="st28" points="10.88 7.46 10.75 7.68 10.62 7.91 10.26 7.99 10.43 7.57 10.71 7.5 10.88 7.46"/>
        <path class="st137" d="M14.06,6.3s0,0,0,.01c0,0,0,0,0,0,0,0,0,.01,0,.02,0,0,0,0,0,0,0,0,0,.01,0,.02,0,0,0,.01,0,.01,0,0,0,0,0,0,0,0-.01.01-.02.02h0s-.03.03-.05.04l-.26.1h-.02s-.02-.02-.02-.02h-.02s-.03-.02-.03-.02h-.02s-.02-.02-.02-.02h-.02s0-.02,0-.02h0s0-.03,0-.03h0s.01-.03.01-.03h0s.01-.03.01-.03h0s.01-.03.01-.03h0s.01-.03.01-.03h0s.01-.03.01-.03v-.03s.31-.1.31-.1c.02,0,.05,0,.07,0,0,0,.01,0,.02.01,0,0,0,0,0,0,0,0,0,0,0,.02,0,0,0,0,0,0,0,0,0,.01,0,.02,0,0,0,0,0,0h0s0,.03,0,.03h0s0,.03,0,.03h0s0,.03,0,.03h0s0,.02,0,.03Z"/>
        <path class="st62" d="M10.62,7.91s-.42.42-1.32,1.09c0,0-.07-.02-.14-.08,0,0,0,0,0,0-.06-.05-.11-.12-.11-.22,0,0,1.26-.98,1.37-1.12,0,0-.03.16.06.27h0s.07.06.13.07Z"/>
        <path class="st72" d="M11.97,8.35s.05,0,.07.01c.07.02.12.07.16.13l.25.4s0,.06-.02.07l-1.32.73c-.38.11-.55-.18-.53-.33,0-.03,0-.06.04-.07l1.14-.36.22-.59Z"/>
        <path class="st73" d="M15.1,5.35s-.04-.02-.04-.04c-.06-.61.08-.68.12-.69.02,0,.04.01.05.03,0,.02,0,.04-.03.05,0,0-.1.08-.06.6,0,.02-.01.04-.04.05,0,0,0,0,0,0ZM15.19,4.7h0s0,0,0,0ZM15.19,4.7h0,0ZM15.2,4.7h0Z"/>
        <path class="st61" d="M12.25,8.89l-.84.45-.42.22s-.09.03-.14.03c-.11-.01-.27-.06-.28-.28,0-.03,0-.06,0-.09l.02-.1s.02-.05.04-.06l.46-.24.88-.47.28.53Z"/>
        <g>
          <g class="st17">
            <path class="st137" d="M14.03,6.15l-.41.14h0s.01-.03.01-.03h0s.37-.13.37-.13c0,0,.01,0,.02.01,0,0,0,0,0,0Z"/>
          </g>
          <g class="st17">
            <path class="st137" d="M14.05,6.2l-.45.16h-.01s.01-.03.01-.03h0s.43-.16.43-.16c0,0,0,.01,0,.02,0,0,0,0,0,0h0Z"/>
          </g>
          <g class="st17">
            <polygon class="st137" points="14.05 6.26 13.57 6.42 13.57 6.43 13.56 6.43 13.56 6.43 13.57 6.41 13.57 6.39 13.58 6.39 13.58 6.39 14.05 6.23 14.05 6.24 14.05 6.26"/>
          </g>
          <g class="st17">
            <path class="st137" d="M14.06,6.3s0,0,0,.01l-.44.15h-.02s-.02-.02-.02-.02l.48-.17s0,.01,0,.02Z"/>
          </g>
          <g class="st17">
            <path class="st137" d="M14.05,6.34s0,.01,0,.02c0,0,0,.01,0,.01l-.35.12h-.02s-.02-.02-.02-.02l.4-.14Z"/>
          </g>
        </g>
        <path class="st112" d="M13.43,9.01s-.01.15.02.21c0,0,.2-.45.81-.39,0,0,.48-.53.87-.31,0,0-.12-1.12-.1-1.23l-.12-.03-.22.17-1.2,1.29-.04.29Z"/>
        <path class="st109" d="M12.64,7.88s.8-.36,1.28,0c0,0,.17-.62.99-.62,0,0,.05,1.04.12,1.09,0,0-.49,0-.8.39,0,0-.48-.11-.9.36,0,0-.56-1.15-.7-1.23Z"/>
        <path class="st145" d="M13.43,6.23s.04-.01.06-.02c.01,0,.05,0,.09,0,.02,0,.04,0,.07.02,0,.03,0,.07,0,.12,0,.07.02.14.06.19,0,0-.06.17-.11.14-.06-.03-.17.03-.17.03l-.09-.24.1-.23Z"/>
        <path class="st77" d="M13.43,6.27s.21-.21-.68.18c0,0-1.04.45-1.09.48l.14.06.42-.14.78-.2.43-.38Z"/>
        <path class="st138" d="M13.59,6.68s-.08.04-.21.09c-.22.1-.59.26-.93.4-.23.09-.44.18-.58.23l-.22-.18v-.28s0,0,0,0c.02,0,.79-.18,1.77-.66,0,0,.02.35.16.41Z"/>
        <path class="st63" d="M11.66,6.93s0,.19.22.46l-.11.1s-.31-.39-.28-.56h.17Z"/>
        <path class="st143" d="M15.58,6.04s-.04.06-.06.09c-.08.13-.18.16-.25.16-.03,0-.06,0-.09-.02-.02-.01-.04-.02-.06-.04-.05-.04-.09-.02-.12,0-.05.04-.12.07-.19.07h0c-.08,0-.15-.03-.21-.07-.01,0-.03-.02-.04-.03-.03-.02-.05-.04-.07-.06-.13-.13-.22-.31-.24-.49-.03-.33.17-.45.34-.49.1-.02.2,0,.29.04.09.05.17.05.17.05.06,0,.17-.06.17-.06.12-.12.33-.1.4-.09.01,0,.02,0,.02,0,.04.01.07.03.09.05.3.21-.03.73-.14.89Z"/>
        <path class="st32" d="M15.13,5.08s.02-.02.06-.16c.02-.06.06-.12.11-.16.07-.06.19-.12.36-.1,0,0,.03.36-.53.42Z"/>
        <g>
          <g class="st76">
            <path class="st83" d="M10.51,2.25c-.07.1-.18.15-.29.19.1-.06.21-.11.29-.19h0Z"/>
          </g>
          <g class="st76">
            <path class="st83" d="M10.48,2.2c-.08.1-.19.16-.3.2.1-.06.21-.12.3-.2h0Z"/>
          </g>
          <g class="st76">
            <path class="st83" d="M10.48,2.14c-.08.1-.19.17-.31.22.11-.07.21-.14.31-.22h0Z"/>
          </g>
          <g class="st76">
            <path class="st83" d="M10.54,2.31c-.09.07-.2.12-.3.17.08-.06.21-.12.3-.17h0Z"/>
          </g>
          <g class="st76">
            <path class="st83" d="M10.57,2.37c-.11.07-.24.11-.36.16.11-.07.24-.11.36-.16h0Z"/>
          </g>
          <g class="st76">
            <path class="st83" d="M10.57,2.39c-.09.08-.2.12-.31.14.11-.04.21-.08.31-.14h0Z"/>
          </g>
          <g class="st76">
            <path class="st83" d="M10.65,2.48c-.12.06-.25.1-.39.12.13-.03.26-.07.39-.12h0Z"/>
          </g>
          <g class="st76">
            <path class="st83" d="M10.6,2.45c-.1.07-.22.1-.34.11.11-.03.23-.06.34-.11h0Z"/>
          </g>
        </g>
        <path class="st74" d="M5.04,6.11l1.51-.74.44-.22,1.18-.58-1.66-.98-.05.08v.02s-.06.09-.06.09v.02s-.06.09-.06.09v.02s-.06.09-.06.09v.02s-.06.09-.06.09v.02s-.06.09-.06.09v.02s-.06.09-.06.09v.02s-.06.09-.06.09v.02s-.06.09-.06.09v.02s-.06.09-.06.09v.02s-.06.09-.06.09v.02s-.06.09-.06.09v.02s-.06.09-.06.09v.02s-.06.09-.06.09v.02s-.06.09-.06.09v.02s-.06.09-.06.09v.02s-.06.09-.06.09v.02s-.06.09-.06.09v.02s-.06.09-.06.09v.02s-.06.09-.06.09v.02s-.06.09-.06.09v.02s-.06.09-.06.09v.02s-.11.18-.11.18ZM6.01,5.22l.35-.6.29-.5.72.43-.48.24-.44.22-.45.22Z"/>
        <path class="st95" d="M22.33,4.62l-.22.47s-.04.05-.07.05h-.22s-.07-.02-.08-.06l-.13-.47.58-.06.14.07Z"/>
        <ellipse class="st147" cx="22" cy="4.56" rx=".53" ry=".11"/>
        <path class="st166" d="M24.31,2.73c0,.11-.01.21-.04.3-.13.46-.55.79-1.05.79-.6,0-1.09-.49-1.09-1.09s.49-1.09,1.09-1.09c.2,0,.38.05.54.14.33.19.55.54.55.95Z"/>
        <path class="st150" d="M20.8,3.67s-.03,0-.05-.01c-.02-.01-.04-.03-.04-.06l-.04-.21c-.01-.05.02-.1.07-.12l.56-.19s.08,0,.11.01c.03.02.05.06.05.09v.03c0,.08-.04.14-.12.16l-.42.11s-.05,0-.05-.03c0-.02,0-.05.03-.05l.42-.11s.06-.04.06-.08v-.03s0-.02-.02-.03c-.01,0-.02,0-.03,0l-.56.19s-.02.01-.01.02l.04.21s0,0,0,0c0,0,0,0,0,0l.73-.17c.06-.01.09-.07.09-.12l-.03-.23s-.02-.06-.05-.07c-.03-.02-.06-.02-.09-.01l-1.09.36s-.05,0-.05-.03c0-.02,0-.05.03-.05l1.09-.36c.05-.02.11-.01.16.02.05.03.08.08.09.13l.03.23c.01.1-.05.2-.15.22l-.74.17s-.01,0-.02,0Z"/>
        <path class="st175" d="M20.9,4.55s-.02,0-.03,0c-.02,0-.03-.02-.03-.04l-.06-.2s0-.08.05-.09l.55-.22s.06,0,.08,0c.03.01.04.04.05.07v.03c.01.06-.03.12-.09.14l-.41.14s-.02,0-.02,0c0,0,0-.02,0-.02l.41-.14s.08-.06.07-.11v-.03s-.02-.04-.04-.05c-.02-.01-.04-.01-.06,0l-.55.22s-.03.03-.03.06l.06.2s0,.02.02.02.02,0,.03,0l.72-.21c.07-.02.11-.09.1-.16l-.05-.23s-.03-.07-.07-.09c-.03-.02-.07-.02-.11,0l-1.07.42s-.02,0-.02,0,0-.02,0-.02l1.07-.42s.09-.01.13,0c.04.02.07.06.08.11l.05.23c.02.08-.03.17-.12.19l-.72.21s-.01,0-.02,0Z"/>
        <path class="st160" d="M23.69,4.54c0,.05-.02.1-.05.14h-.68s-.05-.09-.05-.14c0-.15.18-.28.39-.28s.39.13.39.28Z"/>
        <path class="st35" d="M10.69,5.12s.46-.23.6-.08c.07.08.07.2,0,.29-.08.09-.16.22,0,.25,0,0,.42-.03.34.5-.03.2-.14.41-.26.56-.34.42-1.02.53-1.53.42-.03,0-.07-.02-.1-.03-.13-.05-.25-.13-.33-.24-.08-.11-.13-.24-.16-.37,0,0-.09-.53.41-.73l1.32-.59h-.29Z"/>
        <rect class="st168" x="22.75" y="4.54" width="1.15" height=".14"/>
        <path class="st174" d="M11.15,5.28s-.31.3,0,.39c0,0,.49.06.15.66,0,0-.43.74-1.55.57,0,0-.4-.09-.43-.54-.02-.26.1-.52.3-.68.24-.19.67-.47,1.31-.63.07-.02.13-.02.2,0,.08.03.15.09.02.23Z"/>
        <path class="st124" d="M11.56,3.44c0-.05.02-.1.04-.14.12-.18.32-.25.53-.24.14,0,.27.04.41,0-.06.01-.12.05-.18.08-.05.03-.09.06-.13.09-.04.04-.06.09-.1.13-.09.1-.23.13-.37.14-.05,0-.1,0-.15,0-.03,0-.06-.03-.06-.06v-.02Z"/>
        <path class="st142" d="M11.57,3.32s-1.8.91-2.26,1.36c-.03.03,0,.07.04.05.49-.27,2.19-1.21,2.33-1.21,0,0-.06-.08-.11-.2Z"/>
        <path class="st79" d="M9.92,2.53s-1.59.87-1.99,1.23c-.03.02,0,.07.04.05l2.06-1.03.03-.25h-.14Z"/>
        <path class="st146" d="M10.2,2.34s0,.2.14.28l-.31.17s-.14-.11-.11-.25c0,0,.08-.08.28-.2Z"/>
        <path class="st23" d="M13.21,1.94"/>
        <g>
          <path class="st157" d="M13.25,2.28c.05.06.08.13.02.16-.02.01-.05.02-.07,0-.07-.02-.24-.08-.37-.3l.07-.06h.02c.13.03.25.09.33.19Z"/>
          <path class="st98" d="M13.23,2.47s-.02,0-.03,0c-.07-.02-.24-.09-.38-.31h0s.09-.08.09-.08h.03c.14.03.26.1.34.2h0c.04.05.06.1.05.13,0,.02-.01.04-.03.05-.02.01-.03.02-.05.02ZM12.84,2.16c.14.21.3.27.36.29.02,0,.04,0,.06,0,.01,0,.02-.02.02-.03,0-.03-.01-.06-.05-.11h0c-.08-.1-.19-.16-.32-.19h-.01s-.06.05-.06.05Z"/>
          <path class="st82" d="M12.72,2.06s.02-.07.03-.08c0-.03.02-.07.02-.1.02-.1.01-.28-.13-.28-.06,0-.13.04-.16.09,0,0-.01.02-.02.03-.03.07.02.15.07.21.06.06.13.1.2.14Z"/>
          <path class="st98" d="M12.72,2.07h0s0,0,0,0h0c-.07-.04-.14-.08-.2-.14-.07-.07-.1-.15-.07-.22,0-.01.01-.02.02-.03.04-.05.11-.09.18-.09.04,0,.08.01.1.04.05.06.06.17.04.25,0,.03-.01.06-.02.1,0,0,0,0,0,.02,0,.02-.02.05-.02.06h-.01s0,.01,0,.01ZM12.64,1.61s0,0,0,0c-.06,0-.12.03-.15.08,0,0-.01.02-.02.03-.03.08.04.17.06.19.05.05.11.09.18.12,0-.01,0-.03.02-.05,0,0,0-.02,0-.02.01-.04.02-.07.02-.1.01-.07,0-.18-.04-.23-.02-.02-.05-.03-.08-.03Z"/>
          <path class="st64" d="M12.78,2.02s-.03-.33.21-.47c.04-.03.11,0,.13.04.02.06.03.14-.08.27,0,0-.14.17-.25.16Z"/>
          <path class="st98" d="M12.79,2.03s0,0-.01,0h-.01s0-.01,0-.01c0,0-.03-.34.21-.48.02-.01.06-.02.08,0,.03,0,.05.03.06.06.02.06.03.15-.08.28,0,0-.14.16-.25.16ZM13.03,1.55s-.03,0-.04.01c-.2.12-.2.38-.2.44.1,0,.23-.15.23-.15.08-.09.11-.18.08-.25,0-.02-.03-.03-.05-.04,0,0-.02,0-.02,0Z"/>
          <path class="st144" d="M12.87,2.03s.11-.18.29-.2c.08-.01.16.04.18.11.01.06,0,.13-.15.17,0,0-.31.06-.39-.03-.08-.08.07-.06.07-.06Z"/>
          <path class="st98" d="M13,2.15c-.08,0-.16-.01-.2-.05-.02-.02-.04-.04-.03-.06.01-.03.07-.02.1-.02.02-.04.13-.18.3-.2.09-.01.17.04.19.12.01.06,0,.14-.16.19,0,0-.1.02-.2.02ZM12.83,2.04s-.03,0-.03,0c0,0,0,0,.02.03.06.06.3.04.38.02.11-.03.15-.08.14-.15-.02-.07-.09-.11-.16-.1-.17.02-.28.19-.28.19h0s0,0,0,0c-.02,0-.03,0-.05,0Z"/>
          <path class="st107" d="M12.86,2.2s.22.22.08.36c0,0-.17.14-.2-.17,0,0-.03-.19.07-.23l.04.04Z"/>
          <path class="st98" d="M12.86,2.61s-.02,0-.04,0c-.05-.02-.08-.09-.09-.21,0,0-.03-.2.08-.25h0s.05.04.05.04c0,0,.23.24.08.38,0,0-.04.04-.09.04ZM12.82,2.18c-.08.05-.05.21-.05.21,0,.1.04.17.08.18.04.02.1-.02.1-.02.13-.13-.08-.34-.08-.34l-.03-.03Z"/>
          <path class="st128" d="M12.69,2.13s-.2.05-.27.2c-.04.1,0,.21.11.24.09.02.19-.06.24-.44h-.08Z"/>
          <path class="st98" d="M12.56,2.59s-.02,0-.03,0c-.05-.01-.09-.05-.11-.09-.02-.05-.03-.11,0-.16.07-.16.27-.21.28-.21h0s.1,0,.1,0v.02c-.04.24-.09.39-.17.44-.02.01-.04.02-.06.02ZM12.7,2.14s-.2.06-.26.19c-.02.05-.02.1,0,.14.02.04.05.07.09.08.03,0,.05,0,.07-.01.07-.04.12-.18.15-.4h-.07Z"/>
          <path class="st170" d="M12.64,2.01c-.06-.04-.13-.06-.2-.06-.09,0-.2.02-.24.14,0,0-.04.11.13.14.1.02.22-.02.3-.08.04-.03.07-.05.07-.09l-.07-.04Z"/>
          <path class="st98" d="M12.38,2.24s-.03,0-.05,0c-.06-.01-.11-.03-.13-.07-.02-.04-.01-.08-.01-.08.03-.1.12-.15.25-.15.07,0,.14.03.21.07l.08.04h0c0,.06-.04.08-.08.11-.08.06-.18.09-.26.09ZM12.41,1.96c-.1,0-.17.04-.2.13,0,0-.01.03,0,.06.02.03.06.05.11.06.09.01.2-.02.29-.08.04-.03.06-.04.06-.07l-.06-.03c-.06-.04-.13-.06-.19-.06,0,0-.02,0-.03,0Z"/>
          <path class="st55" d="M12.89,2.09c0,.06-.05.11-.11.11s-.11-.05-.11-.11.05-.11.11-.11.11.05.11.11Z"/>
        </g>
        <path class="st67" d="M13.19,2.34c.09-.1.17-.2.26-.3.13-.15.31-.27.51-.27.07,0,.17.02.21.08.04.06.02.15-.03.2-.03.03-.08.05-.12.07-.04.02-.09.04-.14.04.05,0,.1-.01.16,0,.08.01.17.05.21.13.02.04.04.1.01.14-.03.05-.09.06-.14.06-.08,0-.16,0-.23,0-.21-.02-.42-.07-.62-.12,0,0-.07-.03-.08-.02Z"/>
        <path class="st130" d="M13.19,2.69s.64-.43.81-.15c0,0,.2.25-.25.25,0,0,.19.02.15.22,0,.05-.05.09-.1.08-.09,0-.28-.08-.6-.41Z"/>
        <polygon class="st94" points="17.93 4.02 17.93 4.41 18.54 4.38 18.55 4.02 17.93 4.02"/>
        <polygon class="st118" points="16.3 5.44 16.3 5.63 20.28 5.63 20.28 5.47 18.43 5.3 16.3 5.44"/>
        <polygon class="st39" points="19.98 4.66 16.72 4.63 16.3 5.44 20.28 5.47 19.98 4.66"/>
        <path class="st30" d="M16.94,4.66l-.3.51h0c.28,0,.56,0,.84,0,.78.01,1.74.02,2.52.04v.02s-.26-.5-.26-.5c.06.02-1.4-.03-1.39-.03-.35,0-1.05-.03-1.4-.04h0ZM16.94,4.66c.78,0,2.01.03,2.8.04,0,0,0,0,.01,0l.25.5s0,.01,0,.02c-.28,0-.56,0-.85-.01-.42,0-1.26-.02-1.68-.03-.28,0-.57,0-.84-.02,0,0,.31-.5.31-.5h0Z"/>
        <rect class="st90" x="16.79" y="2.42" width="3.15" height="1.65"/>
        <rect class="st68" x="16.98" y="2.53" width="2.83" height="1.4"/>
        <path class="st115" d="M24.91,3.54s-.05.04-.12-.01c-.05-.04-.1-.07-.15-.08,0,0,0,0,0,0-.12-.04-.24-.01-.35.06l-.63.43s.22.11-.08.22c0,0,.22.08.5-.11,0,0,.12-.05.06.08-.02.04-.03.07-.02.11,0,.05.02.09.09.04.02-.02.04-.03.05-.05.02-.02.05-.06.09-.02.02.01.03.03.05.03.06.01.18,0,.27-.19.03-.06.07-.11.13-.14.07-.04.18-.07.32-.02l-.21-.34Z"/>
        <path class="st86" d="M19.47,5.78l-.03.42s-.68.05-.61-.26c0-.04.04-.08.08-.1,0,0,0,0,.01,0,.06-.02.16-.05.31-.05.07,0,.15,0,.24,0Z"/>
        <path class="st80" d="M25.66,4.06l-.21.35h.69s.38-.36.35-.48l-.83.13Z"/>
        <path class="st135" d="M26.27,2.76l-.4-.36-.87.22s.53.11.45.34l.87-.08-.05-.11Z"/>
        <path class="st57" d="M25.19,3.15l-.47.22s.14.48.17.62h.51l-.12-.81-.09-.03Z"/>
        <path class="st43" d="M27.75,3.21c-.24.26-.48.45-.72.59-.89.52-1.69.31-1.69.31-.28-.45-.17-1.12-.17-1.12.72-.31,1.29-.32,1.71-.22.58.13.87.45.87.45Z"/>
        <rect class="st105" x="24.92" y="5.84" width=".76" height=".11"/>
        <g>
          <path class="st110" d="M26.57,3.37c0,.12-.1.22-.22.22s-.22-.1-.22-.22.1-.22.22-.22.22.1.22.22Z"/>
          <path class="st97" d="M26.57,3.37c0,.2-.25.31-.39.17-.09-.09-.09-.25,0-.33.14-.14.39-.03.39.17h0ZM26.57,3.37c0-.19-.24-.29-.37-.15-.08.08-.08.22,0,.3.13.14.38.04.37-.15h0Z"/>
        </g>
        <g>
          <path class="st110" d="M25.87,3.49c0,.12-.1.22-.22.22s-.22-.1-.22-.22.1-.22.22-.22.22.1.22.22Z"/>
          <path class="st97" d="M25.87,3.49c0,.2-.25.31-.39.17-.09-.09-.09-.25,0-.33.14-.14.39-.03.39.17h0ZM25.87,3.49c0-.19-.24-.29-.37-.15-.08.08-.08.22,0,.3.13.14.38.04.37-.15h0Z"/>
        </g>
        <rect class="st92" x="23.16" y="5.78" width="1.85" height=".25" rx=".07" ry=".07"/>
        <path class="st111" d="M27.08,5.86c0,.37-.34.67-.76.67s-.76-.3-.76-.67.34-.67.76-.67.76.3.76.67Z"/>
        <path class="st49" d="M26.91,5.86c0,.29-.26.53-.59.53-.1,0-.19-.02-.28-.06-.18-.09-.31-.27-.31-.47,0-.29.26-.53.59-.53.23,0,.43.12.52.29.04.07.06.16.06.24Z"/>
        <rect class="st84" x="25.33" y="7.36" width=".56" height=".17"/>
        <path class="st120" d="M23.85,7.22c.11.02.47.07,1.43.07.03,0,.06.02.07.06.01.05.02.12.02.2,0,.02-.02.03-.03.03-.34-.03-.69-.06-1.04-.07-.14,0-.29,0-.43-.04-.03,0-.06-.02-.08-.03-.06-.04-.06-.11-.03-.17.02-.03.05-.05.09-.04Z"/>
        <path class="st36" d="M25.79,7.43s.04-.06.07-.08c.03-.03.06-.05.09-.07.13-.07.27-.09.41-.04.05.02.1.05.14.08.08.06.29.2.6.22-.01,0-.04.02-.05.03-.04.02-.09.04-.13.06-.13.06-.28.1-.42.13-.23.03-.47-.02-.64-.19-.03-.03-.06-.06-.07-.11,0-.01,0-.02,0-.03Z"/>
        <path class="st59" d="M10.5,16.87c0,.22-.07.47-.29.65-.09.07-.2.13-.35.17l-.14-.69-.35-1.77-.17-.85s-.04,0-.1-.02c-.27-.05-.99-.17-1.33-.23-.42-.08-2.57-.56-2.57-.56,0,0-.03-.67.17-.84,0,0,2.41-.14,2.41-.14.36-.02.73-.02,1.09-.02.22,0,.7-.09.81.18.05.11.07.3-.03.59,0,0-.17.53.17,1.2,0,0,.32.62.33,1.08,0,0,.05.35.21.67.09.18.15.38.15.58Z"/>
        <path class="st161" d="M9.09,12.93c-.34-.17-.73-.19-1.1-.13-.05,0-.11.02-.16.03.05-.02.1-.04.15-.05.36-.1.79-.08,1.1.16h0Z"/>
        <path class="st106" d="M8.37,13.69c-.64-.09-1.29-.24-1.89-.23-.47,0-1,.04-1.43.24.02-.05.01-.07.02-.12,0-.03.05-.03.06-.06-.16-.05-.23-.32-.14-.46.08-.14.25-.21.41-.24.37-.07.75.02,1.1.14.48-.02,1.06-.26,1.33-.38h.12c-.05.55-.61.59-.87.58.17.06.35.11.53.14.15.02.3.03.45.09.14.05.28.15.32.3Z"/>
        <path class="st96" d="M10.36,17.35s0,0,0,0c-.02.06-.04.11-.07.17-.05.04-.2.12-.35.18,0,0-.01,0-.02,0-.07.02-.15.03-.23.04,0,0,0,0,0,0h0s.07-.5.07-.5h0s.04-.24.04-.24c.05-.16.07-.33.03-.54l-.34-1.1-.04-.14-.23-.74h0s-.04-.11-.04-.11h0s-.19-.63-.19-.63c0,0,.02,0,.06,0,.11,0,.36.08.59.47.05.08.1.18.14.29.08.2.13.42.14.64.01.21.06.83.24,1.14.1.17.17.25.22.45.05.19.05.41-.02.61Z"/>
        <path class="st59" d="M9.85,17.66c-.07.05-.13.07-.13.07-.01,0-.02,0-.03.01,0,0,0,0,0,0-.02,0-.05.02-.07.03-.57.21-1.1.32-1.58.38-1.62.17-2.65-.36-2.65-.36-1.18-.14-.59-3.61-.59-3.61-.02-.61.25-.67.35-.67.02,0,.04,0,.04,0,0,0,0,0,0,0,.47-.16,1.78-.11,2.55-.07.33.02.56.04.56.04.31.04.56.14.75.26.29.2.46.46.54.71.13.35.11.65.11.65.02.39.13.87.21,1.16.03.13.08.25.13.38.25.62-.01.91-.19,1.03Z"/>
        <g class="st51">
          <path class="st59" d="M7.57,13.51c.53,0,1.15.1,1.61.4.08.05.15.12.22.19.06.08.11.16.14.26,0,.03,0,.06-.04.07-.01,0-.03,0-.04,0-.36-.2-.75-.35-1.15-.45-.35-.09-.71-.14-1.07-.13h-.16c.05,0,.18-.02.23-.03.55-.05,1.11.06,1.62.25.2.08.39.16.58.26l-.08.06c-.19-.61-1.3-.8-1.86-.88h0Z"/>
        </g>
        <path class="st15" d="M7.44,17.84c.22.06.45.15.6.3-1.62.17-2.65-.36-2.65-.36-1.18-.14-.59-3.61-.59-3.61-.03-.69.32-.68.38-.67l.07.17s.03.06.05.08c.28.33.6.61,1,.81.24.11.49.2.75.24.46.08.92.05,1.39.01-.18.16-.45.18-.7.18-.57.01-1.26-.03-1.87-.05-.19,0-.33.19-.26.37.17.44.39.9.51,1.32.09.32.2.66.46.88.24.2.56.25.85.32Z"/>
        <path class="st5" d="M8.4,15.33c.1.01.2.03.28.08.08.05.13.14.16.22.09.21.12.44.12.67,0,.23-.04.45-.07.68-.02.1-.03.21-.1.29-.09.12-.25.15-.39.18-.13.03-.26.05-.39.05-.13,0-.27-.03-.37-.12-.1-.08-.17-.2-.2-.33-.03-.13-.04-.26-.04-.39-.01-.3-.02-.6,0-.89,0-.07.02-.15.03-.22,0-.05.01-.15.05-.18.03-.04.14-.03.19-.04.07,0,.15-.02.22-.02.17,0,.34,0,.51.02Z"/>
        <path class="st102" d="M7.86,12.34s-.05.1-.03.15c.06.18.13.64-.81.57,0,0-1.57-.06-2.01-.14,0,0-.19,0-.12-.36.04-.21.15-.4.29-.56.2-.22.57-.58,1.05-.91.88-.6,1.98-.78,3.02-.53.61.15,1.3.39,1.1.67,0,0,.43-.08.46.4v.18s-.25-.7-.95-.23c0,0-.41.28-.83.45-.21.09-.45.12-.68.11-.12,0-.31.02-.47.2Z"/>
        <g class="st17">
          <path class="st75" d="M8.64,14.93s.09,0,.12.02c.12.05.23.12.31.24.1.15.11.34.11.51,0,.17-.01.33-.01.5,0,.17.02.31.05.48.03.17.06.35.02.53-.06.28-.3.48-.57.53-.25.05-.51.02-.76-.04.25,0,.5,0,.73-.07.21-.07.41-.24.44-.46.03-.14,0-.3-.03-.46-.04-.16-.06-.35-.05-.51,0-.17.02-.34.04-.5.01-.16.02-.32-.04-.46-.05-.11-.14-.19-.25-.25-.03-.02-.07-.05-.11-.04h0Z"/>
        </g>
        <path class="st153" d="M8.8,16.13c.02-.22.08-.63-.05-.81-.04-.05-.09-.05-.15-.05-.41-.02-.82-.03-1.23-.09.39-.05.78-.06,1.17-.05.02,0,.09,0,.11,0,.44.04.27.73.15.99h0Z"/>
        <path class="st153" d="M6.82,15.18c-.27-.05-1.06-.24-1.25-.03-.03.03-.03.09-.02.14,0,.2.01.39.01.59,0,.19-.02.39-.01.58.02.34.16.83.58.85-.45.05-.66-.48-.7-.84-.02-.19,0-.4,0-.59,0-.19,0-.39,0-.58h0s0-.07,0-.11c0-.04.03-.08.05-.11.25-.29,1.05-.02,1.35.11h0Z"/>
        <path class="st134" d="M8.89,12.75c.17-.05.44-.11.59.03.12.14.05.35.02.51-.14.96.33.99.3,1.72-.03-.18-.08-.34-.16-.5-.05-.11-.12-.21-.16-.32-.12-.29-.13-.61-.07-.91.03-.15.12-.35,0-.47-.15-.09-.34-.07-.51-.05h0Z"/>
        <g class="st17">
          <path class="st136" d="M9.5,15.32c.09.34.16.68.27,1.01.03.1.08.23.11.33.09.3.07.66-.16.9-.17.19-.42.28-.66.33l-.16.04c-.79.21-1.65.24-2.44.04.81.06,1.61-.01,2.39-.23.11-.03.23-.05.33-.09.48-.14.66-.49.55-.96-.03-.11-.06-.23-.09-.34-.08-.34-.11-.69-.14-1.04h0Z"/>
        </g>
        <path class="st141" d="M10.78,5.63c-.04.06-.1.1-.17.11-.02,0-.04,0-.06,0h0s-.02,0-.03,0c-.03,0-.06-.01-.09-.03-.02-.01-.05-.03-.06-.05-.01-.02-.02-.06,0-.08.02-.03.05-.02.07-.04.03-.03.03-.1.06-.13.03-.04.08-.08.14-.08.06,0,.12.03.16.08,0,0,0,.01,0,.02,0,0,0,0,0,0,.03.06.02.14-.02.2Z"/>
        <path class="st139" d="M10.23,5.96s-.05.05-.07.07c-.03.02-.07.04-.1.06-.12.05-.25.09-.37.05-.06-.02-.12-.09-.1-.15.03-.08.13-.07.17-.13.04-.05.02-.12.09-.16.06-.04.13-.04.19-.04.04,0,.09,0,.13.03.03.01.06.04.08.07.04.06.02.15-.02.21Z"/>
        <path class="st89" d="M9.82,6.77h0s-.1.07-.15.05c.02,0,.01-.11,0-.13-.02-.05-.05-.05-.1-.06-.08-.03-.13-.11-.04-.17.02-.02.04-.02.07-.03.03,0,.05,0,.08,0,0,0,0,0,.01,0,.06.01.12.06.14.12,0,.02.01.04.01.06,0,.06,0,.12-.03.16Z"/>
        <path class="st81" d="M10.09,6.77s-.01.04-.02.05c-.01.02-.03.03-.06.04-.04.01-.09,0-.11-.05-.04-.08.04-.12.11-.13,0,0,0,0,.01,0,.02,0,.04,0,.05.01.02.02.03.05.02.07Z"/>
        <path class="st53" d="M10.46,6.76s-.03.02-.05.02h0c-.07,0-.1-.11-.03-.14.02,0,.03,0,.04,0,.05.01.08.09.04.13Z"/>
        <path class="st103" d="M12.46,7.16c.01-.09,0-.18-.03-.27.14-.07.29-.14.44-.21.03-.01.06-.03.09-.04.04-.02.08-.04.12-.06.07-.03.15-.05.23-.05.02.08.03.17.08.24-.22.1-.59.26-.93.4Z"/>
        <path class="st31" d="M24.29,1.99c-.34-.46-.93-.63-1.44-.47-.02,0-.03.03-.02.05h0s.03.03.05.02c.12-.04.25-.06.37-.06.37,0,.74.17.98.5.19.26.27.58.22.9-.05.32-.22.6-.48.79-.31.23-.69.28-1.03.19-.02,0-.04,0-.05.02h0s0,.05.03.05c.05.01.09.02.14.03.07.01.13.02.2.02.27,0,.53-.09.76-.25.28-.2.46-.5.51-.84.05-.34-.03-.68-.23-.96Z"/>
        <polygon class="st179" points="26.5 1.83 26.5 1.82 26.5 1.82 26.5 1.83"/>
        <path class="st25" d="M22.98,3.37s-.02.01-.02.03c0,0,0,.01,0,.02,0,0,0,.01,0,.02,0,0,0,.01,0,.02,0,0,0,.01-.01.02,0,.02,0,.02.01.03.01.02,0,.04-.02.06,0,0-.01.02,0,.03.01,0,.02-.01.03-.02,0,.02,0,.02.03,0,0,0,0,.02,0,.03,0,0,0,0,.01.01-.02.01,0,.03,0,.04,0,0,0,.01,0,.02,0,0,.01.01.02.02,0,.01.04.07.06.06,0,0,.01,0,.02,0h0s-.02-.02-.02-.04c0-.01-.02-.03-.02-.04,0,0,0-.02,0-.02,0,0,0-.02,0-.03,0,0,0-.02,0-.02,0-.01,0-.02,0-.03,0-.02,0-.03-.02-.04-.01,0-.02-.02-.03-.04,0,0,0-.02,0-.02,0,0,0-.01,0-.01,0,0-.01,0-.01,0-.01-.01-.02-.03-.02-.04,0-.01-.02-.03-.02-.04Z"/>
        <path class="st27" d="M18.22,4.23c-.31,0-.56.15-.56.34h1.13c0-.19-.25-.34-.56-.34Z"/>
        <path class="st47" d="M26.91,5.86c0,.29-.26.53-.59.53-.1,0-.19-.02-.28-.06-.02-.09-.02-.18,0-.27.05-.19.22-.33.41-.39.11-.03.23-.05.35-.05.01,0,.03,0,.04,0,.04.07.06.16.06.24Z"/>
        <path class="st151" d="M27.75,3.21c-.24.26-.48.45-.72.59-.06-.04-.12-.1-.17-.16-.1-.14-.15-.33-.12-.51.02-.12.07-.23.12-.34,0-.01.01-.02.02-.03.58.13.87.45.87.45Z"/>
        <path class="st54" d="M25.01,5.85v.11s-.03.07-.07.07h-.41s0-.05,0-.08c0-.05,0-.12,0-.17h.4s.07.03.07.07Z"/>
        <g>
          <circle class="st110" cx="27.16" cy="3.32" r=".22"/>
          <path class="st97" d="M27.39,3.32c0,.2-.25.31-.39.17-.09-.09-.09-.25,0-.33.14-.14.39-.03.39.17h0ZM27.39,3.32c0-.19-.24-.29-.37-.15-.08.08-.08.22,0,.3.13.14.38.04.37-.15h0Z"/>
        </g>
        <path class="st177" d="M24.31,2.73c0,.11-.01.21-.04.3-.05.01-.1,0-.14-.02-.07-.05-.08-.15-.08-.24-.02.01-.04.02-.06.02-.02,0-.04,0-.06-.02-.01-.02-.01-.04,0-.07,0-.02.01-.04.01-.07,0-.02-.01-.05-.04-.05-.02,0-.04.02-.05.04,0,.02-.02.04-.03.06-.03.04-.1.03-.13-.01-.03-.04-.04-.09-.04-.14.03.01.06,0,.07-.02.02-.02.02-.05,0-.08-.02-.03-.07-.03-.1-.04-.04,0-.08-.03-.08-.07,0-.03.04-.06.07-.06.03,0,.07,0,.1-.02.03-.01.05-.05.03-.08-.05-.03-.1-.08-.1-.13,0-.04.02-.07.04-.1.02-.03.04-.06.06-.09.01-.03,0-.04.01-.06.33.19.55.54.55.95Z"/>
        <path class="st4" d="M22.67,3.04s-.04.07-.02.1c.03.06.11.06.16.06,0,0-.02.02-.02.02,0,0-.01.02-.02.02-.01.02-.02.03-.03.05-.01.04.01.09.05.1.04,0,.07-.03.1-.06.01-.03.05-.04.09-.04s.07-.02.08-.05c0-.03-.02-.05-.05-.07-.03-.01-.06-.03-.06-.06,0-.04.04-.07.06-.1,0-.01,0-.03,0-.04,0-.01-.02-.02-.03-.03-.01,0-.02-.02-.03-.02,0,0-.02-.02-.03-.01-.02,0-.03.02-.04.04-.02.02-.04.04-.06.06-.03.02-.06.03-.09.03-.02,0-.04,0-.06,0Z"/>
        <path class="st40" d="M22.74,2.88s-.06.02-.08,0c-.02,0-.03-.02-.04-.03-.01-.01-.03-.02-.05-.01-.02,0-.03.03-.03.05,0,.02,0,.04-.02.06-.02.03-.07.04-.1.02-.03-.02-.04-.06-.04-.1,0-.04.03-.07.06-.09.02-.01.03-.03.05-.04s.03-.04.02-.06c0-.03-.03-.05-.05-.07-.02-.04-.02-.08,0-.12.03-.03.07-.04.11-.03.02,0,.04.02.06.02.02,0,.03-.03.04-.05.02-.05.03-.1.05-.14.02-.06.04-.12.08-.16.04-.04.11-.07.16-.05.06.02.08.09.08.16,0,.14-.12.27-.12.41,0,.02,0,.04,0,.06-.02.12-.14,0-.18-.03-.01.07,0,.15-.01.22Z"/>
        <g class="st17">
          <path class="st133" d="M23.27,3.81c0-.17,0-.35-.01-.52,0-.17,0-.35,0-.52,0-.17,0-.35,0-.52v-.26c0-.09,0-.17.01-.26,0,.09,0,.17,0,.26v.26c0,.17,0,.35,0,.52,0,.17,0,.35,0,.52,0,.17,0,.35-.01.52Z"/>
          <path class="st7" d="M23.27,1.71c.07.17.13.34.17.52.04.18.07.36.08.54,0,.09,0,.18,0,.27,0,.09-.02.18-.04.27-.02.09-.05.18-.08.26-.04.08-.08.16-.13.24.04-.08.08-.16.12-.24.03-.08.06-.17.07-.26.02-.09.03-.18.03-.27,0-.09,0-.18,0-.27,0-.18-.03-.36-.07-.54-.02-.09-.04-.18-.07-.26-.02-.09-.05-.17-.08-.26Z"/>
          <path class="st108" d="M23.25,3.81c-.08-.05-.14-.13-.19-.21-.05-.08-.09-.17-.11-.26-.05-.18-.06-.38-.04-.56.02-.19.07-.37.13-.55.06-.18.14-.35.23-.52l-.06.13s-.04.09-.05.13c-.04.09-.07.17-.1.26-.06.18-.1.36-.12.55,0,.09-.01.19,0,.28,0,.09.02.19.04.28.02.09.06.18.1.26.05.08.1.16.18.22Z"/>
          <path class="st176" d="M23.39,1.84c.13.13.23.28.31.45.07.17.11.35.1.54,0,.09-.02.18-.04.27v.03s-.02.03-.02.03c0,.02-.01.04-.02.07-.02.04-.03.09-.06.13-.01.02-.02.04-.03.06l-.04.06-.02.03-.02.03-.04.06s-.06.07-.08.11c-.03.03-.06.07-.09.1.12-.14.22-.29.3-.45.02-.04.04-.08.05-.12,0-.02.01-.04.02-.06v-.03s.02-.03.02-.03c.02-.09.04-.18.04-.27,0-.09,0-.18-.02-.27-.02-.09-.04-.18-.08-.26-.03-.08-.07-.16-.12-.24-.05-.08-.1-.15-.16-.22Z"/>
          <path class="st104" d="M23.16,1.71c-.08.07-.15.14-.21.22-.06.08-.12.16-.17.25-.05.09-.09.18-.12.28-.03.1-.05.2-.05.3-.01.2.03.41.11.59.08.19.22.34.36.49-.07-.07-.14-.15-.21-.22-.07-.08-.12-.17-.17-.26-.09-.18-.13-.39-.12-.6,0-.1.03-.21.06-.3.03-.1.07-.19.13-.28.11-.18.24-.33.41-.46Z"/>
          <path class="st70" d="M22.98,1.71c-.08.06-.16.14-.23.21-.07.08-.14.16-.2.24-.06.09-.11.18-.15.27-.04.1-.07.2-.08.3-.02.21.04.42.15.59.03.04.06.08.1.12.03.04.07.08.11.11.04.04.08.07.12.11.04.03.08.07.13.09-.05-.02-.09-.05-.13-.08-.04-.03-.08-.07-.12-.1-.04-.04-.08-.07-.11-.11-.04-.04-.07-.08-.1-.12-.03-.04-.06-.09-.08-.14-.02-.05-.04-.1-.05-.15-.03-.1-.04-.21-.03-.32.02-.21.11-.41.24-.58.12-.17.28-.32.45-.44Z"/>
          <path class="st173" d="M23.45,1.77c.07.03.13.07.19.11.06.04.12.09.17.15.1.11.18.24.23.39.02.07.04.15.05.22,0,.08.01.15,0,.23-.01.15-.05.3-.1.44h0s0,0,0,0c-.03.06-.07.11-.11.16-.04.05-.09.1-.14.14-.05.04-.1.08-.16.12-.05.04-.11.06-.18.08.06-.03.12-.05.17-.09.05-.04.1-.08.15-.12.05-.04.09-.09.13-.14.04-.05.08-.1.11-.16h0c.05-.14.08-.28.09-.43,0-.04,0-.07,0-.11,0-.02,0-.04,0-.06,0-.02,0-.04,0-.06,0-.07-.02-.15-.05-.22-.05-.14-.12-.27-.22-.38-.1-.11-.22-.21-.35-.28Z"/>
          <path class="st167" d="M22.61,1.89c.08.04.17.07.25.09.04,0,.09.02.13.02.04,0,.09,0,.13,0,.09,0,.18-.01.26-.03.04-.01.08-.03.12-.05.04-.02.07-.05.09-.09-.02.04-.05.08-.09.1-.04.03-.08.05-.12.06-.09.03-.18.04-.27.04-.09,0-.18-.01-.27-.04-.04-.01-.09-.03-.13-.04-.04-.02-.08-.04-.12-.06Z"/>
          <path class="st88" d="M22.36,2.15c.12.07.26.12.39.15.14.03.28.05.42.05.14,0,.28-.02.42-.04.07,0,.14-.02.21-.04.07-.02.13-.06.16-.12-.03.06-.09.11-.16.14-.07.03-.14.03-.21.05-.14.02-.28.04-.42.04-.14,0-.29-.01-.42-.05-.14-.04-.27-.1-.39-.17Z"/>
          <path class="st169" d="M22.26,2.45c.04.07.1.12.17.16.07.04.15.05.22.06.16.02.31.03.47.02.16,0,.31-.02.47-.06.08-.02.15-.03.23-.06.07-.03.14-.06.21-.11-.06.05-.13.09-.2.13-.07.03-.15.05-.23.07-.15.04-.31.05-.47.06-.16,0-.32,0-.48-.03-.08-.01-.16-.03-.23-.07-.07-.04-.13-.1-.16-.17Z"/>
          <path class="st164" d="M22.17,3.02c.17-.04.34-.07.51-.1.17-.03.34-.05.51-.06.17,0,.35,0,.52,0,.09,0,.17.02.26.03.08.02.17.04.25.06-.08-.02-.17-.04-.25-.05-.09-.01-.17-.02-.26-.03-.17-.01-.34-.01-.51,0-.17,0-.34.03-.51.05-.17.02-.34.05-.51.08Z"/>
          <path class="st93" d="M22.39,3.39c.13-.04.26-.08.39-.1.13-.02.27-.03.4-.03.13,0,.27.01.4.04l.1.02.1.02.1.03.1.03-.1-.03-.1-.02-.1-.02-.1-.02c-.13-.02-.27-.03-.4-.03-.13,0-.27,0-.4.02-.13.02-.26.04-.39.08Z"/>
          <path class="st149" d="M22.69,3.64c.09-.03.17-.05.26-.06.09-.02.18-.03.27-.03.09,0,.18,0,.27,0,.04,0,.09.02.13.03.04.02.08.03.12.06-.08-.04-.17-.06-.26-.07-.09,0-.18,0-.27,0-.09,0-.18.01-.27.02-.09.01-.18.03-.27.04Z"/>
        </g>
        <path class="st152" d="M11.4,9.33l-.42.22s-.09.03-.14.03c-.11-.01-.27-.06-.28-.28,0-.03,0-.06,0-.09l.02-.1s.02-.05.04-.06l.46-.24c.04.06.07.11.11.17.05.07.1.15.14.22.03.04.05.08.06.13Z"/>
        <g class="st17">
          <path class="st56" d="M12.28,8.89s.09.03.14.05"/>
          <path class="st140" d="M12.28,8.89s.05,0,.07.01c.02,0,.04.02.06.04-.03,0-.05,0-.07-.01-.02,0-.04-.02-.06-.04Z"/>
        </g>
        <path class="st121" d="M15.58,6.04s-.04.06-.06.09c-.08.13-.18.16-.25.16-.03,0-.06,0-.09-.02.02-.02.03-.04.04-.06.03-.06.05-.12.06-.19.02-.13.02-.27.02-.4,0-.08.02-.17.05-.24.04-.08.11-.12.18-.15.03-.01.06-.02.09-.03.03-.01.07-.02.1-.04.3.21-.03.73-.14.89Z"/>
        <g class="st17">
          <path class="st44" d="M11.27,3.49c.02.06.02.14.09.17-.08,0-.1-.1-.09-.17h0Z"/>
        </g>
        <path class="st52" d="M10.78,5.63c-.04.06-.1.1-.17.11-.01,0-.02,0-.04,0-.01,0-.02,0-.03-.01,0-.03,0-.06.02-.09.05-.1.13-.16.21-.23,0,0,.01,0,.01,0,0,0,0,.01,0,.02,0,0,0,0,0,0,.03.06.02.14-.02.2Z"/>
        <path class="st162" d="M10.23,5.96s-.05.05-.07.07c-.01,0-.02-.01-.03-.02-.07-.09-.03-.22.02-.31,0,0,0-.01.02-.01,0,0,0,0,.01,0,.03.02.05.04.08.06.04.06.02.15-.02.21Z"/>
        <path class="st50" d="M9.82,6.77h0s0-.01,0-.02c0,0,0-.02,0-.03.01-.04,0-.08-.03-.12-.02-.03-.05-.06-.07-.1-.01-.02-.02-.05-.02-.08.06.01.12.06.14.12,0,.02.01.04.01.06,0,.06,0,.12-.03.16Z"/>
        <path class="st48" d="M10.09,6.77s-.01.04-.02.05c0,0,0,0,0,0,0,0,0-.02,0-.04,0-.03,0-.06-.02-.08,0,0-.01-.01-.02-.02.02,0,.04,0,.05.01.02.02.03.05.02.07Z"/>
        <path class="st46" d="M10.46,6.76s-.01,0-.02.01c0,0-.02,0-.02,0,0,0,0,0,0,0,0,0,0,0,0,0,.02-.03.04-.07.02-.1,0,0,0,0,0-.01,0,0,0,0,0-.01,0,0,0-.01,0-.01.05.01.08.09.04.13Z"/>
        <path class="st46" d="M10.47,6.8s-.02,0-.01,0c0,0,.01,0,.01,0Z"/>
        <path class="st87" d="M6.6,12.43c.08.14.24.23.4.24.2,0,.38-.1.53-.23s.28-.28.45-.38c.2-.12.44-.15.67-.21.36-.09.69-.26.99-.48.11-.08.22-.19.2-.32-.01-.11-.35-.16-.45-.19s.02-.05-.09-.03c-.5.07-1,.15-1.48.32-.32.11-.62.27-.88.49-.24.2-.52.46-.33.79Z"/>
        <g class="st17">
          <path class="st148" d="M6.34,10.26l-.96.29-.96.28s0,0-.01,0h0s-.63-2.73-.63-2.73c0,0,0-.01,0-.02l1.83-.51s.01,0,.01,0h0s.13.5.13.5l.13.5.13.5.13.5h0s0,0,0,0c.03.11.06.23.09.34.03.11.06.22.1.33ZM6.34,10.26c-.04-.11-.07-.22-.11-.33-.03-.11-.07-.22-.1-.34,0,0,0,0,0,0h0s0,0,0,0l-.14-.5-.13-.5-.13-.5-.13-.5h.01s-1.83.53-1.83.53v-.02s.63,2.73.63,2.73h-.01s.97-.28.97-.28l.97-.27Z"/>
        </g>
        <path class="st21" d="M7.2,9.88"/>
        <path class="st21" d="M8.48,7.78"/>
        <path class="st18" d="M8.55,7.74s-.61,1.1-.97,1.71c-.1.17-.17.3-.21.36-.01.02-.04.03-.07.02l-.08-.04c.07-.09.14-.2.22-.31.41-.61.83-1.42.97-1.7.02,0,.04,0,.06,0l.07-.02Z"/>
        <path class="st116" d="M7.59,9.44c-.1.17-.17.3-.21.36-.01.02-.04.03-.07.02l-.08-.04-.09-.05s-.03-.04-.02-.07l.14-.23s.1.03.14.04c.02,0,.03,0,.05,0,.05,0,.09,0,.14-.02Z"/>
        <path class="st116" d="M8.56,7.55s-.07-.02-.1-.04c.05-.04.09-.09.1-.11,0,0,0,.08,0,.16Z"/>
        <path class="st132" d="M23.09,7.17s-1.57.9-1.64.8c0,0-.04-.02-.02-.05l-.18-.03-.27-.2.2-.2s.69-.45.77-.46c.07-.02,1.05-.45,1.05-.45,0,0,.27-.08.27-.08-.01,0-.03.02-.03.03-.02.02-.05.04-.07.06-.04.05-.08.1-.1.16-.01.05,0,.1.03.14,0,.02.02.03.04.04.02.02.03.05.06.05.01,0,.03,0,.04.02.02.02,0,.08-.01.1-.04.04-.09.05-.13.07Z"/>
        <path class="st116" d="M10.88,7.46l-.12.22s-.01-.1-.02-.15c0-.01,0-.02-.02-.03l.16-.04Z"/>
        <path class="st11" d="M10.62,7.91s-.42.42-1.32,1.09c0,0-.07-.02-.14-.08.68-.47,1.13-.88,1.32-1.08h0s.07.06.13.07Z"/>
        <g class="st17">
          <path class="st22" d="M13.98,6.23"/>
        </g>
        <path class="st8" d="M13.67,6.36"/>
        <g class="st17">
          <path class="st22" d="M13.99,6.3"/>
        </g>
        <path class="st8" d="M13.7,6.41"/>
        <g class="st17">
          <path class="st22" d="M13.99,6.35"/>
        </g>
        <path class="st8" d="M13.7,6.47"/>
        <path class="st165" d="M4.25,7.96s0,0,0,.01c-.02.04-.03.07-.05.11-.03.07-.08.14-.11.2-.03.05-.06.1-.1.14-.03.04-.06.09-.09.13l-.11-.47.46-.13Z"/>
        <path class="st165" d="M5.11,10.62l-.7.2-.15-.65s.04.04.06.05c.07.05.14.09.22.14.15.08.3.16.46.22.04.01.07.03.11.05Z"/>
        <path class="st41" d="M19.41,7.21s-.03.02-.04.03c-.03.02-.05.05-.07.08-.06.09-.03.19.04.26.02.02.04.04.06.06,0,0,.03.02.03.03,0,.01-.02.02-.03.02-.02,0-.04-.01-.06-.02-.04-.02-.08-.05-.11-.08-.03-.03-.07-.06-.09-.1-.03-.07,0-.18.04-.24.01-.02.03-.03.04-.05.02-.01.04-.04.06-.05,0,0,.21-.07.13.07Z"/>
        <g class="st17">
          <path class="st42" d="M8.08,5.5c.1.02.21.09.22.2-.05-.09-.14-.14-.22-.2h0Z"/>
        </g>
        <path class="st45" d="M21.21,7.53s0,.02-.01.02c0,.02-.02.03-.02.05-.02.05-.02.1,0,.15.01.03.03.07.06.08.03.02.08.02.11.02.04,0,.13.02.12.07,0,.02-.02.03-.04.03-.02,0-.04,0-.06,0-.08,0-.16,0-.24,0-.14-.01-.28-.03-.42-.05-.06-.01-.12-.02-.18-.03,0,0-.62-.17-1.09-.22,0,0-.1-.02-.18-.12-.04-.05-.05-.11-.04-.17v-.05s.04-.15.21-.21h.87l.86.05s.03.38.03.38Z"/>
        <path class="st26" d="M19.23,7.16l1.97.37s1.81-.86,2.06-1.03c0,0-.96-.04-1.71-.22,0,0-1.78.6-2.31.88Z"/>
        <path class="st6" d="M6.62,15.15c.12.03.25.06.33.16.07.09.09.2.1.32.05.36.07.72.06,1.09,0,.11,0,.21-.02.32-.02.13-.04.23-.17.27-.11.03-.25.02-.36,0-.13-.02-.26-.04-.39-.06-.11-.02-.24-.01-.32-.11-.18-.21-.2-.51-.21-.79,0-.32,0-.64.01-.97,0-.08,0-.21.07-.25.05-.03.13-.02.18-.03.07,0,.15,0,.22,0,.16,0,.33.02.49.05Z"/>
        <path class="st117" d="M10.04,11.13c-.31-.15-.64-.25-.97-.32-.17-.04-.33-.06-.5-.08-.17-.02-.34-.02-.5-.01-.17,0-.33.03-.49.07-.16.04-.32.09-.48.15-.31.12-.61.28-.88.48-.28.19-.55.39-.76.65-.05.06-.1.13-.14.2-.02.04-.04.07-.06.11-.02.04-.03.07-.05.11-.01.04-.03.07-.04.11,0,.01,0,.02,0,.02,0,0,0,0,0,.01,0,.01,0,.02.01.03.01.02.03.04.06.06.01,0,.03.02.05.02.02,0,.03.02.05.02.04.01.07.02.11.03.04,0,.08.01.12.01h.06s.04,0,.06,0h.06s.04,0,.06,0c.08,0,.17-.01.25-.02l.25-.03c.17-.02.34-.04.51-.05.09,0,.17-.01.26-.01.09,0,.17,0,.26.01-.09,0-.17,0-.26.02-.08.01-.17.02-.25.04-.17.03-.34.06-.5.09l-.25.05c-.09.01-.17.03-.26.03-.02,0-.04,0-.07,0h-.07s-.04,0-.07,0h-.07s-.09,0-.13,0c-.05,0-.09-.01-.14-.03-.02,0-.05-.01-.07-.02-.02,0-.05-.02-.07-.03-.04-.03-.09-.07-.12-.12-.01-.03-.03-.06-.03-.09,0-.02,0-.04,0-.05,0-.02,0-.03,0-.04,0-.05.02-.09.04-.13.01-.04.03-.09.05-.13.02-.04.04-.08.06-.12.05-.08.1-.15.15-.22.11-.14.24-.26.37-.38.13-.11.27-.22.42-.31.29-.19.6-.36.93-.49.16-.06.33-.11.51-.15.17-.04.35-.05.53-.05.18,0,.35.01.52.04.17.03.34.06.51.11.33.1.65.23.94.42Z"/>
        <g class="st17">
          <path class="st0" d="M10.15,11.12c-.22.09-.44.19-.62.33-.09.07-.17.16-.23.25-.04.05-.09.1-.14.14-.23.19-.54.25-.83.2-.06-.01-.1-.03-.15-.03-.08.01-.15.05-.22.11-.1.07-.19.15-.29.22.08-.09.15-.19.23-.28.06-.07.15-.14.25-.16.1-.03.19.01.28.01.17,0,.34-.03.48-.11.1-.05.18-.12.25-.2.08-.1.17-.19.28-.26.21-.13.45-.2.7-.23h0Z"/>
        </g>
        <path class="st155" d="M7.74,12.32s.04.12.04.18c0,.13-.09.24-.19.31-.15.11-.35.14-.53.14-.12,0-.24,0-.36-.03.24,0,.48,0,.7-.09.16-.05.32-.17.35-.35,0-.06.02-.12-.01-.17h0Z"/>
        <path class="st171" d="M8.46,13.73c-.47-.08-.93-.14-1.4-.17-.47-.02-.94-.02-1.4.06-.15.03-.3.07-.44.12-.03.01-.07.03-.09.04-.06.04-.12.14-.1.21,0,0,0,0,.02,0,.04,0,.08,0,.12-.02l.12-.03c.19-.05.4-.07.6-.08.64-.03,1.27.05,1.89.15.31.06.62.12.93.2-.47-.07-.93-.14-1.4-.18-.47-.04-.94-.07-1.41-.04-.19.01-.39.04-.57.08-.08.02-.16.05-.25.06-.15,0-.21-.11-.18-.24.03-.15.14-.25.28-.29.15-.06.31-.1.47-.12.93-.15,1.92,0,2.83.23h0Z"/>
        <path class="st66" d="M6.58,12.4c-.14.1-.39.29-.54.48-.07.09-.11.2-.11.32v.24s.02.13.22.1c0,0,.56.06.48-.22,0,0-.06-.42.14-.53,0,0,.34-.2.42-.34,0,0,.17-.12-.38-.12-.08,0-.16.03-.22.07Z"/>
        <path class="st60" d="M8.61,10.78c-.45-.04-.91.05-1.34.2-.04.02-.16.06-.2.08-.04.02-.15.07-.19.09-.04.02-.14.08-.19.1-.08.05-.16.1-.25.15.08-.06.15-.12.23-.17.05-.03.14-.09.18-.12.04-.02.15-.08.19-.1.04-.02.16-.07.2-.09.43-.16.9-.24,1.36-.15h0Z"/>
        <path class="st30" d="M16.86,4.8c.95,0,2.01,0,2.97.03-.95,0-2.01,0-2.97-.03h0Z"/>
        <path class="st30" d="M16.72,5c1-.01,2.12,0,3.12.02-1,.01-2.12,0-3.12-.02h0Z"/>
        <path class="st30" d="M17.13,4.7c-.07.14-.13.29-.18.43.03-.16.09-.31.18-.43h0Z"/>
        <path class="st30" d="M17.3,4.7c-.07.14-.13.3-.18.45.02-.16.09-.32.18-.45h0Z"/>
        <path class="st30" d="M17.52,4.7c-.08.14-.16.28-.21.43.03-.16.11-.31.21-.43h0Z"/>
        <path class="st30" d="M17.69,4.7c-.07.14-.13.29-.18.43.02-.16.09-.31.18-.43h0Z"/>
        <path class="st30" d="M17.91,4.7l-.05.11c-.05.1-.09.22-.13.33.02-.16.08-.31.18-.43h0Z"/>
        <path class="st30" d="M18.19,4.7c-.08.15-.16.3-.21.46.03-.17.1-.33.21-.46h0Z"/>
        <path class="st30" d="M18.24,4.7c.06.15.08.32.05.48,0-.16-.02-.32-.05-.48h0Z"/>
        <path class="st30" d="M18.43,4.73c.07.13.16.27.13.42,0-.15-.09-.28-.13-.42h0Z"/>
        <path class="st30" d="M18.69,4.71c.06.13.2.26.16.42,0-.16-.12-.28-.16-.42h0Z"/>
        <path class="st30" d="M18.94,4.71c.07.14.27.28.24.45,0-.04-.01-.08-.03-.12-.06-.11-.17-.2-.21-.33h0Z"/>
        <path class="st30" d="M19.2,4.74c.07.14.27.28.24.45,0-.04-.01-.08-.03-.12-.06-.11-.17-.2-.21-.33h0Z"/>
        <path class="st30" d="M19.48,4.74c.07.14.27.28.24.45,0-.04-.01-.08-.03-.12-.06-.11-.17-.2-.21-.33h0Z"/>
        <path class="st65" d="M19.21,5.9s0,.08,0,.12c0,.01,0,.03,0,.04s-.01.03-.03.03c-.02,0-.04,0-.05-.02-.01-.01-.02-.03-.02-.05-.03-.07-.09-.13-.16-.16-.02,0-.04-.02-.05-.04,0,0,0,0,0,0,0,0,0,0,.01,0,.06-.02.16-.05.31-.05,0,0,0,.02,0,.03,0,.03-.02.07-.03.1Z"/>
        <path class="st65" d="M19.27,5.79c.04.13.03.28-.01.41,0-.14.01-.27.01-.41h0Z"/>
        <path class="st178" d="M19.45,5.94s-.1,0-.11.04c0,.01.01.03.03.04.02,0,.04.01.07.02-.04,0-.07,0-.11-.02-.01,0-.02-.03-.01-.04.02-.05.09-.05.13-.03h0Z"/>
        <path class="st178" d="M19.37,5.96s0,.04,0,.05c0-.02,0-.03,0-.05h0Z"/>
        <path class="st178" d="M19.41,5.95s0,.04,0,.06c0-.02,0-.04,0-.06h0Z"/>
        <path class="st178" d="M19.44,5.95s0,.04,0,.07c0-.02,0-.04,0-.07h0Z"/>
        <g class="st17">
          <path class="st113" d="M6.08,13.26c.1-.02.2-.04.31-.04.06,0,.12.06.09.12-.03.05-.11.04-.15.04-.06,0-.14-.02-.2-.03.06,0,.14,0,.2,0,.05,0,.1,0,.13-.03.01-.02,0-.05-.03-.07-.04-.03-.09-.02-.14-.01-.07,0-.14.01-.2.01h0Z"/>
        </g>
        <g class="st17">
          <path class="st109" d="M13.88,7.87c.09.13.16.27.23.42.06.15.12.3.12.46,0-.02,0-.04-.01-.06-.07-.29-.21-.56-.34-.82h0Z"/>
        </g>
        <g>
          <path class="st158" d="M14,7.82c0-.07.06-.14.12-.16-.05.04-.09.1-.12.16h0Z"/>
          <path class="st158" d="M14.23,7.61c.02-.06.07-.11.13-.12-.05.03-.1.07-.13.12h0Z"/>
          <path class="st158" d="M14.52,7.42c.06-.04.13-.07.2-.09-.06.04-.13.07-.2.09h0Z"/>
        </g>
        <g>
          <path class="st158" d="M14.06,7.94c0-.07.06-.14.12-.16-.05.04-.09.1-.12.16h0Z"/>
          <path class="st158" d="M14.28,7.73c.02-.06.07-.11.13-.12-.05.03-.1.07-.13.12h0Z"/>
          <path class="st158" d="M14.58,7.53c.06-.04.13-.07.2-.09-.06.04-.13.07-.2.09h0Z"/>
        </g>
        <g>
          <path class="st158" d="M14.14,8.08c0-.07.06-.14.12-.16-.05.04-.09.1-.12.16h0Z"/>
          <path class="st158" d="M14.37,7.87c.02-.06.07-.11.13-.12-.05.03-.1.07-.13.12h0Z"/>
          <path class="st158" d="M14.66,7.67c.06-.04.13-.07.2-.09-.06.04-.13.07-.2.09h0Z"/>
        </g>
        <g>
          <path class="st158" d="M13.86,7.9c-.07-.06-.15-.1-.24-.1.09-.02.19.03.24.1h0Z"/>
          <path class="st158" d="M13.48,7.83c-.07-.03-.14-.05-.22-.04.07-.03.16-.01.22.04h0Z"/>
          <path class="st158" d="M13.05,7.82c-.09.03-.17.04-.26.05.09-.03.17-.04.26-.05h0Z"/>
        </g>
        <g>
          <path class="st158" d="M13.89,8.02c-.07-.06-.15-.1-.24-.1.09-.02.19.03.24.1h0Z"/>
          <path class="st158" d="M13.51,7.94c-.07-.03-.14-.05-.22-.04.07-.03.16-.01.22.04h0Z"/>
          <path class="st158" d="M13.08,7.93c-.09.03-.17.04-.26.05.09-.03.17-.04.26-.05h0Z"/>
        </g>
        <g>
          <path class="st158" d="M13.95,8.13c-.07-.06-.15-.1-.24-.1.09-.02.19.03.24.1h0Z"/>
          <path class="st158" d="M13.57,8.05c-.07-.04-.14-.05-.22-.04.07-.03.16-.01.22.04h0Z"/>
          <path class="st158" d="M13.13,8.04c-.09.03-.17.04-.26.05.09-.03.17-.04.26-.05h0Z"/>
        </g>
        <g>
          <path class="st158" d="M14.03,8.24c-.07-.06-.15-.1-.24-.1.09-.02.19.03.24.1h0Z"/>
          <path class="st158" d="M13.65,8.16c-.07-.04-.14-.05-.22-.04.07-.03.16-.01.22.04h0Z"/>
          <path class="st158" d="M13.22,8.15c-.09.03-.17.04-.26.05.09-.03.17-.04.26-.05h0Z"/>
        </g>
        <g>
          <path class="st158" d="M14.06,8.35c-.06-.06-.14-.09-.22-.1.08-.02.18.03.22.1h0Z"/>
          <path class="st158" d="M13.7,8.27c-.07-.03-.14-.05-.21-.04.07-.03.15-.01.21.04h0Z"/>
          <path class="st158" d="M13.29,8.27c-.08.02-.16.04-.25.04.08-.02.16-.04.25-.04h0Z"/>
        </g>
        <g>
          <path class="st158" d="M14.08,8.49c-.06-.06-.14-.09-.22-.1.08-.02.17.03.22.1h0Z"/>
          <path class="st158" d="M13.72,8.41c-.07-.03-.13-.05-.21-.04.07-.03.15-.01.21.04h0Z"/>
          <path class="st158" d="M13.32,8.41c-.08.02-.16.04-.24.04.08-.02.16-.04.24-.04h0Z"/>
        </g>
        <g>
          <path class="st158" d="M14.14,8.6c-.06-.06-.14-.09-.22-.1.08-.02.17.03.22.1h0Z"/>
          <path class="st158" d="M13.78,8.53c-.07-.03-.13-.05-.21-.04.07-.03.15-.01.21.04h0Z"/>
          <path class="st158" d="M13.37,8.52c-.08.02-.16.04-.24.04.08-.02.16-.04.24-.04h0Z"/>
        </g>
        <g>
          <path class="st158" d="M14.19,8.71c-.06-.06-.14-.09-.22-.1.08-.02.17.03.22.1h0Z"/>
          <path class="st158" d="M13.84,8.64c-.07-.03-.13-.05-.21-.04.07-.03.15-.01.21.04h0Z"/>
          <path class="st158" d="M13.43,8.63c-.08.02-.16.04-.24.04.08-.02.16-.04.24-.04h0Z"/>
        </g>
        <g>
          <path class="st158" d="M14.14,8.71c-.06-.03-.13-.05-.2-.03.07-.03.15-.01.2.03h0Z"/>
          <path class="st158" d="M13.84,8.72c-.06-.01-.12,0-.18.01.05-.04.12-.04.18-.01h0Z"/>
          <path class="st158" d="M13.5,8.8c-.06.04-.12.07-.19.09.06-.04.12-.07.19-.09h0Z"/>
        </g>
        <g>
          <path class="st158" d="M14.2,8.22c0-.07.06-.14.12-.16-.05.04-.09.1-.12.16h0Z"/>
          <path class="st158" d="M14.42,8.01c.02-.06.07-.11.13-.12-.05.03-.1.07-.13.12h0Z"/>
          <path class="st158" d="M14.72,7.81c.06-.04.13-.07.2-.09-.06.04-.13.07-.2.09h0Z"/>
        </g>
        <g>
          <path class="st158" d="M14.23,8.38c0-.07.06-.14.12-.16-.05.04-.09.1-.12.16h0Z"/>
          <path class="st158" d="M14.45,8.17c.02-.06.07-.11.13-.12-.05.03-.1.07-.13.12h0Z"/>
          <path class="st158" d="M14.74,7.98c.06-.04.13-.07.2-.09-.06.04-.13.07-.2.09h0Z"/>
        </g>
        <g>
          <path class="st158" d="M14.23,8.52c0-.07.06-.14.12-.16-.05.04-.09.1-.12.16h0Z"/>
          <path class="st158" d="M14.45,8.31c.02-.06.07-.11.13-.12-.05.03-.1.07-.13.12h0Z"/>
          <path class="st158" d="M14.74,8.12c.06-.04.13-.07.2-.09-.06.04-.13.07-.2.09h0Z"/>
        </g>
        <g>
          <path class="st158" d="M14.27,8.63c0-.07.05-.13.12-.16-.05.04-.09.09-.12.16h0Z"/>
          <path class="st158" d="M14.48,8.42c.02-.06.07-.1.13-.12-.05.03-.09.07-.13.12h0Z"/>
          <path class="st158" d="M14.77,8.23c.06-.04.12-.07.19-.09-.06.04-.12.07-.19.09h0Z"/>
        </g>
        <path class="st9" d="M19.3,7.4c.58.09,1.16.19,1.74.31-.58-.09-1.16-.19-1.74-.31h0Z"/>
        <path class="st20" d="M19.3,7.51c.58.09,1.16.19,1.74.31-.58-.09-1.16-.19-1.74-.31h0Z"/>
        <path class="st16" d="M19.3,7.31c.58.09,1.16.19,1.74.31-.58-.09-1.16-.19-1.74-.31h0Z"/>
        <g>
          <path class="st12" d="M23.02,6.88c-.53.26-1.05.54-1.56.84.53-.26,1.05-.54,1.56-.84h0Z"/>
          <path class="st13" d="M23.06,7c-.53.26-1.05.54-1.56.84.53-.26,1.05-.54,1.56-.84h0Z"/>
          <path class="st10" d="M22.99,6.79c-.53.26-1.05.54-1.56.84.53-.26,1.05-.54,1.56-.84h0Z"/>
        </g>
        <path class="st14" d="M15.65,4.67c-.07.08-.16.16-.24.23-.09.07-.17.14-.28.18.18-.12.34-.28.52-.41h0Z"/>
        <g class="st17">
          <path class="st159" d="M15.48,4.79s0-.07.04-.08c-.02.03-.02.06-.04.08h0Z"/>
          <path class="st33" d="M15.49,4.86s.07-.02.1-.04c-.02.03-.06.05-.1.04,0,0,.04,0,0,0Z"/>
          <path class="st69" d="M15.39,4.75s0,.07.01.11c-.01-.03-.02-.07-.01-.11h0Z"/>
          <path class="st29" d="M15.37,4.93s.1,0,.14-.02c-.04.02-.1.03-.14.02,0,0,.05.01,0,0Z"/>
          <path class="st126" d="M15.3,4.82s-.02.1-.02.13c0-.04,0-.09.02-.13h0Z"/>
          <path class="st1" d="M15.26,5.02c.06,0,.12,0,.17-.04-.04.04-.11.06-.17.04,0,0,.06.02,0,0Z"/>
        </g>
      </g>
      <path class="st163" d="M17.96,6.92c0-.05.02-.1.04-.14.12-.18.32-.25.53-.24.14,0,.27.04.41,0-.06.01-.12.05-.18.08-.05.03-.09.06-.13.09-.04.04-.06.09-.1.13-.09.1-.23.13-.37.14-.05,0-.1,0-.15,0-.03,0-.06-.03-.06-.06v-.02Z"/>
      <path class="st156" d="M17.98,6.81s-1.8.91-2.26,1.36c-.03.03,0,.07.04.05.49-.27,2.19-1.21,2.33-1.21,0,0-.06-.08-.11-.2Z"/>
      <path class="st71" d="M16.18,7.9l2.06-1.03"/>
      <path class="st123" d="M17.78,6.87s-1.59.87-1.99,1.23"/>
      <g class="st17">
        <path class="st99" d="M17.67,6.97c.02.06.02.14.09.17-.08,0-.1-.1-.09-.17h0Z"/>
      </g>
    </g>
  </g>
</svg>