<?xml version="1.0" encoding="UTF-8"?>
<svg id="Capa_1" xmlns="http://www.w3.org/2000/svg" version="1.1" xmlns:xlink="http://www.w3.org/1999/xlink" viewBox="0 0 500 500">
  <!-- Generator: Adobe Illustrator 30.3.0, SVG Export Plug-In . SVG Version: 2.1.3 Build 182)  -->
  <defs>
    <style>
      .st0 {
        fill: url(#Degradado_sin_nombre_43);
      }

      .st1 {
        fill: url(#Degradado_sin_nombre_4);
      }

      .st2 {
        fill: url(#Degradado_sin_nombre_41);
      }

      .st3 {
        fill: url(#Degradado_sin_nombre_42);
      }
    </style>
    <linearGradient id="Degradado_sin_nombre_4" data-name="Degradado sin nombre 4" x1="-1797.51" y1="1940.23" x2="-1723.36" y2="1940.23" gradientTransform="translate(2668.99 1507.51) rotate(-22.44) scale(1 -1)" gradientUnits="userSpaceOnUse">
      <stop offset="0" stop-color="#117da3"/>
      <stop offset=".47" stop-color="#56b9d6"/>
    </linearGradient>
    <linearGradient id="Degradado_sin_nombre_41" data-name="Degradado sin nombre 4" x1="441.45" y1="-804.71" x2="766.16" y2="-804.71" gradientTransform="translate(37.9 1237.94) rotate(-24.74)" xlink:href="#Degradado_sin_nombre_4"/>
    <linearGradient id="Degradado_sin_nombre_42" data-name="Degradado sin nombre 4" x1="441.37" y1="-809.7" x2="766.08" y2="-809.7" gradientTransform="translate(37.9 1237.94) rotate(-24.74)" xlink:href="#Degradado_sin_nombre_4"/>
    <linearGradient id="Degradado_sin_nombre_43" data-name="Degradado sin nombre 4" x1="670.73" y1="-1170.55" x2="746.34" y2="-1170.55" gradientTransform="translate(169.68 1489.9) rotate(-30.57)" xlink:href="#Degradado_sin_nombre_4"/>
  </defs>
  <path class="st1" d="M266.24,395.22c.32-2.4,1.49-4.47,3.16-5.96.26-.23.5-.47.71-.74l36.68-47.7c3.28-4.26,9.39-5.06,13.66-1.78h0c4.26,3.28,5.06,9.39,1.78,13.66l-21.36,27.78c-2.95,3.84-.64,9.44,4.16,10.08l34.74,4.61c5.33.71,9.08,5.6,8.37,10.94h0c-.71,5.33-5.6,9.08-10.94,8.37l-59.65-7.92c-.34-.05-.68-.05-1.03-.03-2.24.12-4.53-.52-6.45-2-1.45-1.12-2.49-2.57-3.12-4.16-.68-1.57-.97-3.33-.73-5.15Z"/>
  <g>
    <path class="st2" d="M395.93,184.24c-31.83-69.07-106.04-105.16-177.53-91.62,2.68-.14,5.43.57,7.79,2.24,1.91,1.35,3.31,3.14,4.18,5.14.95,1.96,1.4,4.19,1.19,6.52-.28,3.07-1.67,5.77-3.72,7.76-.31.31-.61.63-.87.98l-7.25,10.26c58.61-13.36,120.55,15.55,146.71,72.32,28.32,61.46,4.58,133.6-52.9,166.77l-18.89,20.39c-4.2,4.53-1.92,11.91,4.11,13.27l13.74,3.12c1.31-.56,2.63-1.15,3.93-1.75,81.44-37.53,117.03-133.97,79.5-215.4Z"/>
    <path class="st3" d="M250.4,408.86c-.68-2.07-.84-4.34-.32-6.61.68-3.01,2.41-5.5,4.7-7.2.35-.26.69-.54.99-.86l9.72-10.5c-54.6,6.75-109.62-21.94-133.88-74.57-27.06-58.72-6.59-127.19,45.42-162.11l12.28-17.37c3.56-5.04.33-12.05-5.82-12.62l-17.28-1.59c-70.38,41.99-99.17,131.18-64.1,207.28,28.59,62.03,91.35,97.46,155.63,94.23-1.4-.55-2.72-1.35-3.89-2.44-1.71-1.59-2.86-3.55-3.47-5.64Z"/>
  </g>
  <path d="M281.1,208.36c-1.56,1.03-2.6,2.54-3.08,4.21-.07.26-.16.51-.28.74l-20.77,41.58c-1.86,3.72-.35,8.24,3.37,10.09h0c3.72,1.86,8.24.35,10.09-3.37l12.1-24.22c1.67-3.35,6.34-3.63,8.41-.51l14.92,22.59c2.29,3.47,6.96,4.42,10.43,2.13h0c3.47-2.29,4.42-6.96,2.13-10.43l-25.63-38.78c-.15-.22-.26-.46-.37-.71-.67-1.6-1.89-2.97-3.56-3.81-1.27-.63-2.63-.87-3.94-.76-1.32.06-2.64.45-3.82,1.23Z"/>
  <path d="M200.55,208.36c-1.56,1.03-2.6,2.54-3.08,4.21-.07.26-.16.51-.28.74l-20.77,41.58c-1.86,3.72-.35,8.24,3.37,10.09h0c3.72,1.86,8.24.35,10.09-3.37l12.1-24.22c1.67-3.35,6.34-3.63,8.41-.51l14.92,22.59c2.29,3.47,6.96,4.42,10.43,2.13h0c3.47-2.29,4.42-6.96,2.13-10.43l-25.63-38.78c-.15-.22-.26-.46-.37-.71-.67-1.6-1.89-2.97-3.56-3.81-1.27-.63-2.63-.87-3.94-.76-1.32.06-2.64.45-3.82,1.23Z"/>
  <path class="st0" d="M213.24,98.72c-2.15-1.21-4.55-1.53-6.79-1.09-.34.07-.69.12-1.04.12l-61.35.61c-5.48.05-9.89,4.54-9.83,10.03h0c.05,5.48,4.54,9.89,10.03,9.83l35.73-.35c4.94-.05,8.08,5.27,5.65,9.57l-17.56,31.12c-2.7,4.78-1.01,10.83,3.77,13.53h0c4.78,2.7,10.83,1.01,13.53-3.77l30.15-53.44c.17-.31.38-.59.61-.85,1.47-1.75,2.35-4.01,2.33-6.48-.02-1.87-.56-3.61-1.47-5.09-.86-1.52-2.12-2.83-3.75-3.75Z"/>
</svg>